<?xml version="1.0" encoding="UTF-8" standalone="no"?>
<!-- Created with Inkscape (http://www.inkscape.org/) -->

<svg
   xmlns:dc="http://purl.org/dc/elements/1.1/"
   xmlns:cc="http://creativecommons.org/ns#"
   xmlns:rdf="http://www.w3.org/1999/02/22-rdf-syntax-ns#"
   xmlns:svg="http://www.w3.org/2000/svg"
   xmlns="http://www.w3.org/2000/svg"
   xmlns:xlink="http://www.w3.org/1999/xlink"
   xmlns:sodipodi="http://sodipodi.sourceforge.net/DTD/sodipodi-0.dtd"
   xmlns:inkscape="http://www.inkscape.org/namespaces/inkscape"
   width="541.29388"
   height="123.08689"
   viewBox="0 0 541.29387 123.0869"
   id="svg4171"
   version="1.1"
   inkscape:version="0.92.2 (5c3e80d, 2017-08-06)"
   sodipodi:docname="logo_n.svg">
  <defs
     id="defs4173">
    <linearGradient
       inkscape:collect="always"
       id="linearGradient4147">
      <stop
         style="stop-color:#000000;stop-opacity:1"
         offset="0"
         id="stop4149" />
      <stop
         style="stop-color:#00ff00;stop-opacity:1"
         offset="1"
         id="stop4151" />
    </linearGradient>
    <linearGradient
       inkscape:collect="always"
       xlink:href="#linearGradient4147"
       id="linearGradient4153"
       x1="16.029597"
       y1="938.66254"
       x2="664.46643"
       y2="938.66254"
       gradientUnits="userSpaceOnUse" />
    <linearGradient
       inkscape:collect="always"
       xlink:href="#linearGradient4147"
       id="linearGradient4161"
       x1="507.79272"
       y1="990.38269"
       x2="556.28412"
       y2="990.38269"
       gradientUnits="userSpaceOnUse" />
  </defs>
  <sodipodi:namedview
     id="base"
     pagecolor="#ffffff"
     bordercolor="#666666"
     borderopacity="1.0"
     inkscape:pageopacity="0.0"
     inkscape:pageshadow="2"
     inkscape:zoom="0.98994949"
     inkscape:cx="42.616541"
     inkscape:cy="-16.007378"
     inkscape:document-units="px"
     inkscape:current-layer="layer1"
     showgrid="false"
     inkscape:window-width="1920"
     inkscape:window-height="1017"
     inkscape:window-x="1912"
     inkscape:window-y="-8"
     inkscape:window-maximized="1"
     fit-margin-top="0"
     fit-margin-left="0"
     fit-margin-right="0"
     fit-margin-bottom="0"
     units="px" />
  <metadata
     id="metadata4176">
    <rdf:RDF>
      <cc:Work
         rdf:about="">
        <dc:format>image/svg+xml</dc:format>
        <dc:type
           rdf:resource="http://purl.org/dc/dcmitype/StillImage" />
        <dc:title></dc:title>
      </cc:Work>
    </rdf:RDF>
  </metadata>
  <g
     inkscape:groupmode="layer"
     id="layer3"
     inkscape:label="nelio"
     style="display:inline"
     transform="translate(-16.029627,-901.24025)" />
  <g
     inkscape:groupmode="layer"
     id="layer4"
     inkscape:label="yla"
     style="display:inline"
     transform="translate(-16.029627,-901.24025)" />
  <g
     inkscape:label="Teksti"
     inkscape:groupmode="layer"
     id="layer1"
     style="display:inline;opacity:1"
     transform="translate(-16.029627,-901.24025)">
    <rect
       style="display:inline;opacity:1;fill:url(#linearGradient4161);fill-opacity:1.0;stroke:#000000;stroke-width:3.00000024;stroke-miterlimit:4;stroke-dasharray:none;stroke-opacity:1"
       id="rect5132"
       width="45.491398"
       height="45.491398"
       x="509.29272"
       y="967.63702"
       ry="4.6428657" />
    <path
       style="display:inline;opacity:1;fill:url(#linearGradient4153);fill-opacity:1;stroke:#000000;stroke-width:3.00000024;stroke-linecap:round;stroke-linejoin:round;stroke-miterlimit:4;stroke-dasharray:none;stroke-opacity:1"
       d="m 554.11911,961.61761 c -14.71492,2.67313 -29.74171,2.22746 -44.93173,0.14958 -6.58263,-15.4923 26.30911,-77.59901 -491.660894,12.81821 C 109.84805,949.97914 588.17734,833.97336 554.11911,961.61761 Z"
       id="rect5135"
       inkscape:connector-curvature="0"
       sodipodi:nodetypes="cccc" />
    <g
       transform="matrix(0.84053462,0,-0.3813519,1.189719,0,0)"
       style="font-style:italic;font-variant:normal;font-weight:normal;font-stretch:normal;font-size:59.65262985px;line-height:125%;font-family:Calibri;-inkscape-font-specification:'Calibri Italic';letter-spacing:0px;word-spacing:0px;fill:#000042;fill-opacity:1;stroke:#ffffff;stroke-width:1.99999999;stroke-linecap:butt;stroke-linejoin:miter;stroke-miterlimit:4;stroke-dasharray:none;stroke-opacity:1"
       id="text4179">
      <path
         sodipodi:type="inkscape:offset"
         inkscape:radius="0"
         inkscape:original="M 589.00391 787.51562 C 587.81485 787.51562 586.8195 787.61112 586.01758 787.80469 C 585.21566 787.99825 584.53743 788.31733 583.98438 788.75977 C 583.43132 789.20221 582.99003 789.76962 582.6582 790.46094 C 582.32637 791.15225 582.06271 791.99474 581.86914 792.99023 C 581.64789 794.01338 581.56576 794.88455 581.62109 795.60352 C 581.67639 796.29483 581.8827 796.86225 582.24219 797.30469 C 582.62932 797.71947 583.18338 798.02323 583.90234 798.2168 C 584.64896 798.38272 585.60227 798.46484 586.76367 798.46484 C 587.95273 798.46484 588.94807 798.38272 589.75 798.2168 C 590.55193 798.02323 591.23015 797.71947 591.7832 797.30469 C 592.33625 796.86225 592.77754 796.29483 593.10938 795.60352 C 593.44121 794.88455 593.70487 794.01338 593.89844 792.99023 C 594.09203 791.99474 594.1608 791.15225 594.10547 790.46094 C 594.07782 789.76962 593.87151 789.20221 593.48438 788.75977 C 593.12489 788.31733 592.57084 787.99825 591.82422 787.80469 C 591.10525 787.61112 590.16531 787.51562 589.00391 787.51562 z M 721.77539 787.51562 C 720.58633 787.51562 719.59099 787.61112 718.78906 787.80469 C 717.98714 787.99825 717.31086 788.31733 716.75781 788.75977 C 716.20476 789.20221 715.76152 789.76962 715.42969 790.46094 C 715.09786 791.15225 714.8342 791.99474 714.64062 792.99023 C 714.41938 794.01338 714.33724 794.88455 714.39258 795.60352 C 714.44788 796.29483 714.65615 796.86225 715.01562 797.30469 C 715.40277 797.71947 715.95486 798.02323 716.67383 798.2168 C 717.42045 798.38272 718.37375 798.46484 719.53516 798.46484 C 720.72422 798.46484 721.72151 798.38272 722.52344 798.2168 C 723.32536 798.02323 724.00164 797.71947 724.55469 797.30469 C 725.10774 796.86225 725.55098 796.29483 725.88281 795.60352 C 726.21464 794.88455 726.47636 794.01338 726.66992 792.99023 C 726.86352 791.99474 726.93229 791.15225 726.87695 790.46094 C 726.8493 789.76962 726.64299 789.20221 726.25586 788.75977 C 725.89637 788.31733 725.34232 787.99825 724.5957 787.80469 C 723.87674 787.61112 722.9368 787.51562 721.77539 787.51562 z M 893.67578 787.51562 C 892.48672 787.51562 891.49137 787.61112 890.68945 787.80469 C 889.88753 787.99825 889.2093 788.31733 888.65625 788.75977 C 888.1032 789.20221 887.6619 789.76962 887.33008 790.46094 C 886.99824 791.15225 886.73458 791.99474 886.54102 792.99023 C 886.31977 794.01338 886.23764 794.88455 886.29297 795.60352 C 886.34827 796.29483 886.55458 796.86225 886.91406 797.30469 C 887.3012 797.71947 887.85525 798.02323 888.57422 798.2168 C 889.32084 798.38272 890.27414 798.46484 891.43555 798.46484 C 892.62461 798.46484 893.61995 798.38272 894.42188 798.2168 C 895.2238 798.02323 895.90202 797.71947 896.45508 797.30469 C 897.00812 796.86225 897.44942 796.29483 897.78125 795.60352 C 898.11308 794.88455 898.37675 794.01338 898.57031 792.99023 C 898.76391 791.99474 898.83268 791.15225 898.77734 790.46094 C 898.74969 789.76962 898.54143 789.20221 898.1543 788.75977 C 897.79482 788.31733 897.24271 787.99825 896.49609 787.80469 C 895.77713 787.61112 894.83719 787.51562 893.67578 787.51562 z M 433.32227 789.91992 C 432.27147 789.91992 431.38694 789.96196 430.66797 790.04492 C 429.949 790.10023 429.35486 790.19768 428.88477 790.33594 C 428.44233 790.4742 428.10989 790.65378 427.88867 790.875 C 427.69513 791.06857 427.57096 791.30355 427.51562 791.58008 L 420.00781 828.82812 C 419.78659 830.01719 419.50956 831.01253 419.17773 831.81445 C 418.8459 832.61638 418.4447 833.27929 417.97461 833.80469 C 417.53217 834.30243 416.99344 834.67691 416.35742 834.92578 C 415.72142 835.147 414.98974 835.25781 414.16016 835.25781 C 413.35824 835.25781 412.69337 835.17373 412.16797 835.00781 C 411.67022 834.81425 411.22893 834.6213 410.8418 834.42773 C 410.48231 834.20651 410.16325 834.01357 409.88672 833.84766 C 409.61019 833.68174 409.29307 833.59766 408.93359 833.59766 C 408.71237 833.59766 408.49075 833.76387 408.26953 834.0957 C 408.04831 834.39988 407.84006 834.81444 407.64648 835.33984 C 407.45292 835.83758 407.28865 836.405 407.15039 837.04102 C 406.98447 837.64937 406.84498 838.24351 406.73438 838.82422 C 406.62373 839.40493 406.54159 839.9303 406.48633 840.40039 C 406.43099 840.87048 406.40234 841.21628 406.40234 841.4375 C 406.40234 841.9629 406.51316 842.37747 406.73438 842.68164 C 406.92794 842.95817 407.41127 843.26192 408.18555 843.59375 C 408.93217 843.92558 409.88742 844.18924 411.04883 844.38281 C 412.23789 844.57638 413.48158 844.67188 414.78125 844.67188 C 417.24233 844.67187 419.37251 844.31272 421.16992 843.59375 C 422.995 842.87478 424.54244 841.86608 425.81445 840.56641 C 427.11413 839.23909 428.16487 837.6496 428.9668 835.79688 C 429.76872 833.9165 430.4049 831.84173 430.875 829.57422 L 438.4668 791.58008 C 438.5221 791.2759 438.46669 791.02755 438.30078 790.83398 C 438.16252 790.61276 437.8855 790.43319 437.4707 790.29492 C 437.08357 790.15669 436.54483 790.05924 435.85352 790.00391 C 435.18986 789.94857 434.34541 789.91992 433.32227 789.91992 z M 566.66016 790.00391 C 565.69232 790.00391 564.89187 790.04595 564.25586 790.12891 C 563.61985 790.18421 563.09447 790.2797 562.67969 790.41797 C 562.29255 790.52858 562.00216 790.6948 561.80859 790.91602 C 561.61505 791.10959 561.49088 791.34457 561.43555 791.62109 L 556.33203 816.92383 C 555.9449 818.91481 555.55902 820.97427 555.17188 823.10352 C 554.8124 825.20511 554.47996 827.2512 554.17578 829.24219 L 554.09375 829.24219 C 553.62366 827.7213 553.16705 826.20058 552.72461 824.67969 C 552.30982 823.15879 551.83985 821.62472 551.31445 820.07617 L 543.30859 795.89453 C 543.00441 794.84373 542.67198 793.95725 542.3125 793.23828 C 541.98067 792.51931 541.57947 791.93853 541.10938 791.49609 C 540.66693 791.026 540.11483 790.69552 539.45117 790.50195 C 538.81516 790.28073 538.04144 790.16992 537.12891 790.16992 L 531.44531 790.16992 C 530.33921 790.16992 529.34386 790.50236 528.45898 791.16602 C 527.5741 791.80202 527.00669 792.76869 526.75781 794.06836 L 517.09375 842.34961 C 517.01079 842.62614 517.01079 842.87448 517.09375 843.0957 C 517.20436 843.31692 517.42598 843.49845 517.75781 843.63672 C 518.08965 843.77498 518.55962 843.88384 519.16797 843.9668 C 519.80398 844.04975 520.60638 844.0918 521.57422 844.0918 C 522.54206 844.0918 523.34251 844.04975 523.97852 843.9668 C 524.64218 843.88384 525.18286 843.77498 525.59766 843.63672 C 526.01244 843.49845 526.3162 843.31692 526.50977 843.0957 C 526.73096 842.87448 526.86849 842.62614 526.92383 842.34961 L 532.40039 814.93164 C 532.84283 812.80239 533.24208 810.68753 533.60156 808.58594 C 533.96104 806.45669 534.28011 804.29979 534.55664 802.11523 L 534.63867 802.11523 C 535.10877 803.96795 535.59405 805.83447 536.0918 807.71484 C 536.6172 809.59522 537.18266 811.46173 537.79102 813.31445 L 545.71484 837.28906 C 546.10198 838.61639 546.4745 839.70918 546.83398 840.56641 C 547.19347 841.42364 547.59467 842.10186 548.03711 842.59961 C 548.5072 843.09736 549.05931 843.44315 549.69531 843.63672 C 550.33133 843.83029 551.14708 843.92578 552.14258 843.92578 L 556.78906 843.92578 C 557.34212 843.92578 557.86749 843.85701 558.36523 843.71875 C 558.89063 843.55283 559.3606 843.30448 559.77539 842.97266 C 560.21783 842.64082 560.59035 842.22626 560.89453 841.72852 C 561.22636 841.23077 561.44798 840.66335 561.55859 840.02734 L 571.26562 791.62109 C 571.3209 791.34457 571.29225 791.10959 571.18164 790.91602 C 571.07103 790.6948 570.85136 790.52858 570.51953 790.41797 C 570.1877 790.27967 569.70242 790.18417 569.06641 790.12891 C 568.4304 790.04595 567.628 790.00391 566.66016 790.00391 z M 464.81836 790.16992 C 464.48653 790.16992 464.18082 790.32083 463.9043 790.625 C 463.62777 790.90153 463.37942 791.276 463.1582 791.74609 C 462.93698 792.21619 462.74404 792.74156 462.57812 793.32227 C 462.43986 793.87532 462.31568 794.42742 462.20508 794.98047 C 462.12214 795.50587 462.05338 795.99115 461.99805 796.43359 C 461.97038 796.84839 461.95508 797.1655 461.95508 797.38672 C 461.95508 797.91212 462.02384 798.32669 462.16211 798.63086 C 462.32802 798.93504 462.61842 799.08789 463.0332 799.08789 L 476.39062 799.08789 L 467.76172 842.34961 C 467.70645 842.62614 467.7351 842.87448 467.8457 843.0957 C 467.98396 843.31692 468.23231 843.49845 468.5918 843.63672 C 468.97893 843.77498 469.51766 843.88384 470.20898 843.9668 C 470.9003 844.04975 471.77147 844.0918 472.82227 844.0918 C 473.90072 844.0918 474.7872 844.04975 475.47852 843.9668 C 476.19748 843.88384 476.77826 843.77498 477.2207 843.63672 C 477.6908 843.49845 478.03464 843.31692 478.25586 843.0957 C 478.47709 842.87448 478.62994 842.62614 478.71289 842.34961 L 487.33984 799.08789 L 500.82227 799.08789 C 501.15409 799.08789 501.45785 798.93504 501.73438 798.63086 C 502.03856 798.32669 502.2869 797.9408 502.48047 797.4707 C 502.70169 797.00061 502.88127 796.48859 503.01953 795.93555 C 503.18545 795.35484 503.30962 794.80079 503.39258 794.27539 C 503.50318 793.74999 503.57194 793.28002 503.59961 792.86523 C 503.65494 792.42279 503.68359 792.10568 503.68359 791.91211 C 503.68359 791.35906 503.58615 790.92918 503.39258 790.625 C 503.22666 790.32083 502.97831 790.16992 502.64648 790.16992 L 464.81836 790.16992 z M 761.31836 790.16992 C 760.29521 790.16992 759.41068 790.44695 758.66406 791 C 757.91744 791.5254 757.43216 792.39657 757.21094 793.61328 L 747.83789 840.40039 C 747.6996 841.06405 747.67095 841.61811 747.75391 842.06055 C 747.86451 842.50299 748.0441 842.86215 748.29297 843.13867 C 748.5695 843.38755 748.90192 843.56712 749.28906 843.67773 C 749.70385 843.78834 750.13178 843.84375 750.57422 843.84375 L 764.2207 843.84375 C 768.0091 843.84375 771.27216 843.53999 774.00977 842.93164 C 776.74737 842.32328 779.20997 841.47884 781.39453 840.40039 C 783.57908 839.29428 785.501 837.99519 787.16016 836.50195 C 788.84696 835.00871 790.29696 833.40391 791.51367 831.68945 C 792.73039 829.94734 793.74105 828.13624 794.54297 826.25586 C 795.37255 824.34783 796.02209 822.43928 796.49219 820.53125 C 796.98993 818.59557 797.33573 816.70233 797.5293 814.84961 C 797.75052 812.99688 797.86133 811.24118 797.86133 809.58203 C 797.86133 806.40198 797.37604 803.6089 796.4082 801.20312 C 795.46802 798.7697 794.03138 796.73697 792.0957 795.10547 C 790.18768 793.47397 787.79579 792.24364 784.91992 791.41406 C 782.07171 790.58449 778.51827 790.16992 774.25977 790.16992 L 761.31836 790.16992 z M 767.08398 798.71484 L 772.76562 798.71484 C 775.53089 798.71484 777.72983 799.01859 779.36133 799.62695 C 781.02048 800.23531 782.37498 801.0778 783.42578 802.15625 C 784.47658 803.2347 785.23694 804.52043 785.70703 806.01367 C 786.17712 807.50691 786.41211 809.12507 786.41211 810.86719 C 786.41211 812.63695 786.26121 814.46337 785.95703 816.34375 C 785.65285 818.22412 785.1542 820.06195 784.46289 821.85938 C 783.79923 823.65679 782.92806 825.37045 781.84961 827.00195 C 780.79882 828.60581 779.51308 830.03102 777.99219 831.27539 C 776.49895 832.4921 774.75661 833.45877 772.76562 834.17773 C 770.80229 834.86905 768.37032 835.21484 765.4668 835.21484 L 759.74219 835.21484 L 767.08398 798.71484 z M 618.39844 803.07031 C 615.49492 803.07031 612.90813 803.49824 610.64062 804.35547 C 608.37311 805.2127 606.36907 806.36089 604.62695 807.79883 C 602.91249 809.20911 601.44718 810.854 600.23047 812.73438 C 599.01376 814.61475 598.01841 816.59208 597.24414 818.66602 C 596.46987 820.71231 595.90246 822.80044 595.54297 824.92969 C 595.21114 827.03128 595.04492 829.0086 595.04492 830.86133 C 595.04492 833.2671 595.37736 835.35328 596.04102 837.12305 C 596.70468 838.86515 597.70002 840.30374 599.02734 841.4375 C 600.35466 842.57125 601.99956 843.41374 603.96289 843.9668 C 605.95388 844.51985 608.27699 844.79688 610.93164 844.79688 C 612.53549 844.79687 614.11161 844.70139 615.66016 844.50781 C 617.2087 844.3419 618.60525 844.12028 619.84961 843.84375 C 621.09398 843.56722 622.15808 843.26347 623.04297 842.93164 C 623.92785 842.59981 624.53731 842.26738 624.86914 841.93555 C 625.17331 841.65903 625.43502 841.25782 625.65625 840.73242 C 625.90512 840.20702 626.10002 839.65297 626.23828 839.07227 C 626.40419 838.46391 626.52837 837.85641 626.61133 837.24805 C 626.69429 836.63969 626.73438 836.10095 626.73438 835.63086 C 626.73438 835.21607 626.66561 834.91232 626.52734 834.71875 C 626.38908 834.52518 626.1541 834.42773 625.82227 834.42773 C 625.49043 834.42773 624.96506 834.56527 624.24609 834.8418 C 623.52713 835.09067 622.61391 835.38106 621.50781 835.71289 C 620.42936 836.01707 619.15895 836.30746 617.69336 836.58398 C 616.25543 836.83286 614.62389 836.95703 612.79883 836.95703 C 610.22713 836.95703 608.36063 836.39157 607.19922 835.25781 C 606.03781 834.12405 605.45703 832.43712 605.45703 830.19727 C 605.45703 829.67187 605.48373 829.10445 605.53906 828.49609 C 605.59437 827.86009 605.67846 827.2239 605.78906 826.58789 L 609.60352 826.58789 C 613.64079 826.58789 617.1121 826.28414 620.01562 825.67578 C 622.9468 825.06743 625.35205 824.19626 627.23242 823.0625 C 629.14045 821.90109 630.53699 820.53127 631.42188 818.95508 C 632.33441 817.35122 632.79102 815.55544 632.79102 813.56445 C 632.79102 812.23713 632.50063 810.9514 631.91992 809.70703 C 631.36688 808.43501 630.50907 807.31354 629.34766 806.3457 C 628.18625 805.35021 626.69421 804.56312 624.86914 803.98242 C 623.07172 803.37406 620.91482 803.07031 618.39844 803.07031 z M 665.79297 803.07031 C 664.24442 803.07031 662.73902 803.33202 661.27344 803.85742 C 659.8355 804.35517 658.49436 805.00471 657.25 805.80664 C 656.03329 806.60856 654.9405 807.52178 653.97266 808.54492 C 653.00482 809.54042 652.2311 810.52239 651.65039 811.49023 L 652.85156 805.39258 C 652.90684 805.11605 652.88014 804.88107 652.76953 804.6875 C 652.68657 804.46628 652.49363 804.30007 652.18945 804.18945 C 651.88528 804.05122 651.4554 803.95377 650.90234 803.89844 C 650.37694 803.81548 649.68535 803.77539 648.82812 803.77539 C 647.99855 803.77539 647.28023 803.81548 646.67188 803.89844 C 646.09117 803.95374 645.60784 804.05119 645.2207 804.18945 C 644.86122 804.30007 644.58419 804.46628 644.39062 804.6875 C 644.22474 804.88107 644.11393 805.11605 644.05859 805.39258 L 636.63477 842.43359 C 636.57949 842.71012 636.60618 842.95847 636.7168 843.17969 C 636.8274 843.37325 637.06239 843.53947 637.42188 843.67773 C 637.80901 843.81597 638.32102 843.91146 638.95703 843.9668 C 639.62069 844.04975 640.46318 844.0918 641.48633 844.0918 C 642.48182 844.0918 643.32626 844.04975 644.01758 843.9668 C 644.70889 843.91149 645.26099 843.81599 645.67578 843.67773 C 646.11823 843.53947 646.43729 843.37325 646.63086 843.17969 C 646.85205 842.95847 646.98959 842.71012 647.04492 842.43359 L 650.4043 825.67578 C 650.76378 823.82306 651.35988 822.08073 652.18945 820.44922 C 653.04669 818.79007 654.01335 817.35148 655.0918 816.13477 C 656.1979 814.8904 657.3461 813.90842 658.53516 813.18945 C 659.72422 812.47049 660.87241 812.11133 661.97852 812.11133 C 663.19523 812.11133 664.05108 812.51253 664.54883 813.31445 C 665.04657 814.08873 665.29688 815.08407 665.29688 816.30078 C 665.29687 816.93679 665.25483 817.60166 665.17188 818.29297 C 665.11657 818.95664 665.00576 819.60618 664.83984 820.24219 L 660.44336 842.43359 C 660.38808 842.71012 660.41478 842.95847 660.52539 843.17969 C 660.66365 843.37325 660.91395 843.53947 661.27344 843.67773 C 661.63292 843.81597 662.12962 843.91146 662.76562 843.9668 C 663.42929 844.04975 664.25841 844.0918 665.25391 844.0918 C 666.27705 844.0918 667.12149 844.04975 667.78516 843.9668 C 668.47647 843.91149 669.04389 843.81599 669.48633 843.67773 C 669.92877 843.53947 670.24589 843.37325 670.43945 843.17969 C 670.66065 842.95847 670.79818 842.71012 670.85352 842.43359 L 674.21484 825.67578 C 674.57432 823.82306 675.16847 822.08073 675.99805 820.44922 C 676.85528 818.79007 677.82194 817.35148 678.90039 816.13477 C 680.0065 814.8904 681.15469 813.90842 682.34375 813.18945 C 683.53281 812.47049 684.68101 812.11133 685.78711 812.11133 C 687.03148 812.11133 687.88733 812.51253 688.35742 813.31445 C 688.85517 814.11638 689.10547 815.16713 689.10547 816.4668 C 689.10547 817.10281 689.06343 817.73899 688.98047 818.375 C 688.89752 818.98336 688.80007 819.60618 688.68945 820.24219 L 684.25195 842.43359 C 684.16901 842.71012 684.18236 842.95847 684.29297 843.17969 C 684.43124 843.37325 684.68154 843.53947 685.04102 843.67773 C 685.4005 843.81597 685.91056 843.91146 686.57422 843.9668 C 687.23788 844.04975 688.06896 844.0918 689.06445 844.0918 C 690.0876 844.0918 690.93009 844.04975 691.59375 843.9668 C 692.28506 843.91149 692.85248 843.81599 693.29492 843.67773 C 693.73736 843.53947 694.05448 843.37325 694.24805 843.17969 C 694.46924 842.95847 694.60873 842.71012 694.66406 842.43359 L 699.22656 819.57812 C 699.44778 818.55498 699.61204 817.55964 699.72266 816.5918 C 699.83326 815.5963 699.88867 814.61432 699.88867 813.64648 C 699.88867 812.15324 699.70909 810.77007 699.34961 809.49805 C 698.99012 808.19838 698.40934 807.07886 697.60742 806.13867 C 696.8055 805.17083 695.74138 804.42384 694.41406 803.89844 C 693.11439 803.34538 691.49623 803.07031 689.56055 803.07031 C 688.03965 803.07031 686.56098 803.33202 685.12305 803.85742 C 683.68511 804.35517 682.34398 805.00471 681.09961 805.80664 C 679.8829 806.60856 678.77674 807.50841 677.78125 808.50391 C 676.81341 809.4994 676.01101 810.49474 675.375 811.49023 C 675.26439 810.30117 675.00268 809.19502 674.58789 808.17188 C 674.20076 807.14873 673.61998 806.2642 672.8457 805.51758 C 672.09908 804.74331 671.13047 804.14722 669.94141 803.73242 C 668.77999 803.28998 667.39682 803.07031 665.79297 803.07031 z M 825.13867 803.07031 C 822.23515 803.07031 819.65032 803.49824 817.38281 804.35547 C 815.1153 805.2127 813.11125 806.36089 811.36914 807.79883 C 809.65468 809.20911 808.18937 810.854 806.97266 812.73438 C 805.75594 814.61475 804.75865 816.59208 803.98438 818.66602 C 803.21011 820.71231 802.64464 822.80044 802.28516 824.92969 C 801.95333 827.03128 801.78711 829.0086 801.78711 830.86133 C 801.78711 833.2671 802.11954 835.35328 802.7832 837.12305 C 803.44686 838.86515 804.4422 840.30374 805.76953 841.4375 C 807.09685 842.57125 808.74174 843.41374 810.70508 843.9668 C 812.69606 844.51985 815.01918 844.79688 817.67383 844.79688 C 819.27767 844.79687 820.8538 844.70139 822.40234 844.50781 C 823.95089 844.3419 825.34744 844.12028 826.5918 843.84375 C 827.83616 843.56722 828.90027 843.26347 829.78516 842.93164 C 830.67004 842.59981 831.27754 842.26738 831.60938 841.93555 C 831.91355 841.65903 832.17722 841.25782 832.39844 840.73242 C 832.64731 840.20702 832.84025 839.65297 832.97852 839.07227 C 833.14443 838.46391 833.2686 837.85641 833.35156 837.24805 C 833.43452 836.63969 833.47656 836.10095 833.47656 835.63086 C 833.47656 835.21607 833.40779 834.91232 833.26953 834.71875 C 833.13127 834.52518 832.89629 834.42773 832.56445 834.42773 C 832.23262 834.42773 831.70725 834.56527 830.98828 834.8418 C 830.26931 835.09067 829.3561 835.38106 828.25 835.71289 C 827.17155 836.01707 825.89918 836.30746 824.43359 836.58398 C 822.99566 836.83286 821.36413 836.95703 819.53906 836.95703 C 816.96737 836.95703 815.10086 836.39157 813.93945 835.25781 C 812.77805 834.12405 812.19727 832.43712 812.19727 830.19727 C 812.19727 829.67187 812.22592 829.10445 812.28125 828.49609 C 812.33655 827.86009 812.41868 827.2239 812.5293 826.58789 L 816.3457 826.58789 C 820.38298 826.58789 823.85429 826.28414 826.75781 825.67578 C 829.68899 825.06743 832.09424 824.19626 833.97461 823.0625 C 835.88264 821.90109 837.27918 820.53127 838.16406 818.95508 C 839.0766 817.35122 839.5332 815.55544 839.5332 813.56445 C 839.5332 812.23713 839.24282 810.9514 838.66211 809.70703 C 838.10906 808.43501 837.25126 807.31354 836.08984 806.3457 C 834.92844 805.35021 833.43444 804.56312 831.60938 803.98242 C 829.81196 803.37406 827.65506 803.07031 825.13867 803.07031 z M 863.41016 803.07031 C 860.81082 803.07031 858.4877 803.42947 856.44141 804.14844 C 854.39512 804.83975 852.65278 805.82173 851.21484 807.09375 C 849.7769 808.33812 848.68607 809.80343 847.93945 811.49023 C 847.19283 813.17704 846.81836 815.00151 846.81836 816.96484 C 846.81836 818.76226 847.15079 820.25625 847.81445 821.44531 C 848.50577 822.63437 849.36357 823.62972 850.38672 824.43164 C 851.40987 825.23357 852.51602 825.90984 853.70508 826.46289 C 854.92179 827.01594 856.04131 827.55664 857.06445 828.08203 C 858.0876 828.60743 858.93008 829.17289 859.59375 829.78125 C 860.28506 830.3896 860.63086 831.17864 860.63086 832.14648 C 860.63086 832.8378 860.49332 833.48734 860.2168 834.0957 C 859.96792 834.70406 859.56673 835.2428 859.01367 835.71289 C 858.46062 836.18299 857.75566 836.55746 856.89844 836.83398 C 856.06886 837.08286 855.08688 837.20703 853.95312 837.20703 C 852.32163 837.20703 850.95181 837.04081 849.8457 836.70898 C 848.76726 836.3495 847.85599 835.97698 847.10938 835.58984 C 846.36275 835.17506 845.7533 834.80058 845.2832 834.46875 C 844.81311 834.13692 844.38519 833.9707 843.99805 833.9707 C 843.77683 833.9707 843.56857 834.09488 843.375 834.34375 C 843.18143 834.56497 843.00185 834.87067 842.83594 835.25781 C 842.67002 835.64495 842.51912 836.07288 842.38086 836.54297 L 842.04883 837.95312 C 841.96589 838.42322 841.89713 838.85114 841.8418 839.23828 C 841.81413 839.62541 841.79883 839.94449 841.79883 840.19336 C 841.79883 840.5805 841.84087 840.89761 841.92383 841.14648 C 842.03444 841.39536 842.20065 841.63034 842.42188 841.85156 C 842.7537 842.15574 843.25235 842.48817 843.91602 842.84766 C 844.57968 843.20714 845.38013 843.52621 846.32031 843.80273 C 847.28815 844.07926 848.36758 844.31425 849.55664 844.50781 C 850.77335 844.70139 852.04572 844.79688 853.37305 844.79688 C 856.1383 844.79687 858.61232 844.43772 860.79688 843.71875 C 863.00908 842.97213 864.87559 841.94811 866.39648 840.64844 C 867.94502 839.34876 869.11995 837.81468 869.92188 836.04492 C 870.7238 834.2475 871.125 832.29886 871.125 830.19727 C 871.125 828.39985 870.7792 826.90586 870.08789 825.7168 C 869.39658 824.52774 868.52541 823.51903 867.47461 822.68945 C 866.42381 821.85988 865.29093 821.16829 864.07422 820.61523 C 862.85751 820.06218 861.72267 819.53681 860.67188 819.03906 C 859.62107 818.51366 858.73654 817.95961 858.01758 817.37891 C 857.32626 816.7982 856.98047 816.07988 856.98047 815.22266 C 856.98047 814.55899 857.10464 813.93617 857.35352 813.35547 C 857.63004 812.77476 858.01788 812.27807 858.51562 811.86328 C 859.01336 811.42084 859.63619 811.07505 860.38281 810.82617 C 861.15709 810.5773 862.02825 810.45312 862.99609 810.45312 C 864.24046 810.45313 865.31794 810.5773 866.23047 810.82617 C 867.17066 811.07505 867.98641 811.36544 868.67773 811.69727 C 869.36905 812.00145 869.94983 812.29183 870.41992 812.56836 C 870.91767 812.81723 871.3456 812.94141 871.70508 812.94141 C 872.03691 812.94141 872.3273 812.70642 872.57617 812.23633 C 872.8527 811.73858 873.08768 811.1578 873.28125 810.49414 C 873.47482 809.83047 873.61431 809.18093 873.69727 808.54492 C 873.80787 807.88126 873.86328 807.38261 873.86328 807.05078 C 873.86328 806.38712 873.71042 805.91715 873.40625 805.64062 C 873.12972 805.33645 872.65976 805.03269 871.99609 804.72852 C 871.36009 804.42434 870.59972 804.14731 869.71484 803.89844 C 868.85761 803.64956 867.87563 803.45663 866.76953 803.31836 C 865.69108 803.15245 864.57156 803.07031 863.41016 803.07031 z M 920.20703 803.07031 C 917.7736 803.07031 915.57661 803.49824 913.61328 804.35547 C 911.67759 805.2127 909.94862 806.37426 908.42773 807.83984 C 906.93449 809.27778 905.64877 810.93603 904.57031 812.81641 C 903.49187 814.69679 902.59201 816.66074 901.87305 818.70703 C 901.18173 820.75332 900.67168 822.81278 900.33984 824.88672 C 900.00801 826.96067 899.8418 828.8979 899.8418 830.69531 C 899.8418 832.6863 900.03474 834.53749 900.42188 836.25195 C 900.83666 837.96641 901.49958 839.4604 902.41211 840.73242 C 903.32465 842.00444 904.50152 842.99978 905.93945 843.71875 C 907.40504 844.43772 909.20083 844.79688 911.33008 844.79688 C 912.7127 844.79688 914.08252 844.57526 915.4375 844.13281 C 916.82013 843.71803 918.10586 843.15256 919.29492 842.43359 C 920.48398 841.71463 921.53473 840.91222 922.44727 840.02734 C 923.38745 839.1148 924.10577 838.2016 924.60352 837.28906 C 924.29934 838.06334 923.96886 839.05868 923.60938 840.27539 C 923.2499 841.4921 922.89074 842.99946 922.53125 844.79688 C 922.31003 845.93063 921.93556 846.88588 921.41016 847.66016 C 920.91241 848.43443 920.2495 849.06867 919.41992 849.56641 C 918.59034 850.06415 917.60836 850.42526 916.47461 850.64648 C 915.3685 850.86771 914.1095 850.97852 912.69922 850.97852 C 910.95711 850.97852 909.49179 850.85239 908.30273 850.60352 C 907.11367 850.3823 906.11833 850.13395 905.31641 849.85742 C 904.51449 849.5809 903.86493 849.31919 903.36719 849.07031 C 902.89709 848.84909 902.4959 848.73828 902.16406 848.73828 C 901.83223 848.73828 901.54184 848.86245 901.29297 849.11133 C 901.0441 849.38785 900.80911 849.72029 900.58789 850.10742 C 900.39432 850.52221 900.2281 850.97686 900.08984 851.47461 C 899.95158 852.00001 899.8274 852.49866 899.7168 852.96875 C 899.63385 853.43884 899.57845 853.86677 899.55078 854.25391 C 899.52311 854.64104 899.50977 854.91807 899.50977 855.08398 C 899.50977 855.58173 899.59189 855.96957 899.75781 856.24609 C 899.92373 856.52262 900.22944 856.77097 900.67188 856.99219 C 901.91624 857.57289 903.46369 858.04286 905.31641 858.40234 C 907.19679 858.78948 909.31164 858.98242 911.66211 858.98242 C 914.92511 858.98242 917.7736 858.66531 920.20703 858.0293 C 922.66811 857.39329 924.75624 856.43804 926.4707 855.16602 C 928.18516 853.92165 929.56834 852.36084 930.61914 850.48047 C 931.66993 848.62775 932.44366 846.44217 932.94141 843.92578 L 940.69727 805.39258 C 940.75255 805.11605 940.72585 804.88107 940.61523 804.6875 C 940.50463 804.46628 940.28301 804.30007 939.95117 804.18945 C 939.64699 804.05122 939.21906 803.95377 938.66602 803.89844 C 938.11296 803.81548 937.42138 803.77539 936.5918 803.77539 C 934.90499 803.77539 933.67466 803.89956 932.90039 804.14844 C 932.15377 804.39731 931.72389 804.81187 931.61328 805.39258 L 930.95117 808.66992 C 929.62385 806.84485 928.07445 805.46167 926.30469 804.52148 C 924.53492 803.55364 922.5022 803.07031 920.20703 803.07031 z M 973.70117 803.07031 C 972.09732 803.07031 970.54793 803.33202 969.05469 803.85742 C 967.5891 804.35517 966.22123 805.00471 964.94922 805.80664 C 963.70485 806.60856 962.5987 807.52178 961.63086 808.54492 C 960.66302 809.54042 959.8893 810.52239 959.30859 811.49023 L 960.50977 805.39258 C 960.56505 805.11605 960.53835 804.88107 960.42773 804.6875 C 960.34477 804.46628 960.15183 804.30007 959.84766 804.18945 C 959.54348 804.05122 959.1136 803.95377 958.56055 803.89844 C 958.03515 803.81548 957.34355 803.77539 956.48633 803.77539 C 955.65675 803.77539 954.93843 803.81548 954.33008 803.89844 C 953.74937 803.95374 953.26604 804.05119 952.87891 804.18945 C 952.51942 804.30007 952.24239 804.46628 952.04883 804.6875 C 951.88294 804.88107 951.77213 805.11605 951.7168 805.39258 L 944.29297 842.43359 C 944.2377 842.71012 944.26439 842.95847 944.375 843.17969 C 944.48561 843.37325 944.7206 843.53947 945.08008 843.67773 C 945.46722 843.81597 945.97923 843.91146 946.61523 843.9668 C 947.27889 844.04975 948.12138 844.0918 949.14453 844.0918 C 950.14002 844.0918 950.98447 844.04975 951.67578 843.9668 C 952.36709 843.91149 952.9192 843.81599 953.33398 843.67773 C 953.77643 843.53947 954.0955 843.37325 954.28906 843.17969 C 954.51026 842.95847 954.64779 842.71012 954.70312 842.43359 L 958.0625 825.67578 C 958.42198 823.82306 959.03145 822.08073 959.88867 820.44922 C 960.74591 818.79007 961.71256 817.35148 962.79102 816.13477 C 963.89712 814.8904 965.05868 813.90842 966.27539 813.18945 C 967.51976 812.47049 968.71 812.11133 969.84375 812.11133 C 971.08812 812.11133 971.97265 812.51253 972.49805 813.31445 C 973.02345 814.11638 973.28516 815.1404 973.28516 816.38477 C 973.28516 816.91016 973.24507 817.51766 973.16211 818.20898 C 973.1068 818.9003 973.00935 819.57853 972.87109 820.24219 L 968.39062 842.43359 C 968.33534 842.71012 968.364 842.95847 968.47461 843.17969 C 968.61287 843.37325 968.86122 843.53947 969.2207 843.67773 C 969.58018 843.81597 970.07883 843.91146 970.71484 843.9668 C 971.3785 844.04975 972.22099 844.0918 973.24414 844.0918 C 974.26729 844.0918 975.11173 844.04975 975.77539 843.9668 C 976.4667 843.91149 977.01881 843.81599 977.43359 843.67773 C 977.87603 843.53947 978.1951 843.37325 978.38867 843.17969 C 978.60987 842.95847 978.7474 842.71012 978.80273 842.43359 L 983.40625 819.57812 C 983.59982 818.55498 983.75267 817.55964 983.86328 816.5918 C 984.00154 815.62396 984.07031 814.65534 984.07031 813.6875 C 984.07031 812.24957 983.89073 810.89507 983.53125 809.62305 C 983.17176 808.32337 982.57763 807.1905 981.74805 806.22266 C 980.94613 805.25482 979.88201 804.49445 978.55469 803.94141 C 977.25502 803.3607 975.63685 803.07031 973.70117 803.07031 z M 1009.6895 803.07031 C 1007.0901 803.07031 1004.767 803.42947 1002.7207 804.14844 C 1000.6744 804.83975 998.93403 805.82173 997.49609 807.09375 C 996.05816 808.33812 994.96537 809.80343 994.21875 811.49023 C 993.47213 813.17704 993.09766 815.00151 993.09766 816.96484 C 993.09766 818.76226 993.43008 820.25625 994.09375 821.44531 C 994.78506 822.63437 995.64287 823.62972 996.66602 824.43164 C 997.68916 825.23357 998.79531 825.90984 999.98438 826.46289 C 1001.2011 827.01594 1002.3206 827.55664 1003.3438 828.08203 C 1004.3669 828.60743 1005.2094 829.17289 1005.873 829.78125 C 1006.5644 830.3896 1006.9102 831.17864 1006.9102 832.14648 C 1006.9102 832.8378 1006.7726 833.48734 1006.4961 834.0957 C 1006.2472 834.70406 1005.846 835.2428 1005.293 835.71289 C 1004.74 836.18299 1004.035 836.55746 1003.1777 836.83398 C 1002.3481 837.08286 1001.3662 837.20703 1000.2324 837.20703 C 998.60094 837.20703 997.23305 837.04081 996.12695 836.70898 C 995.0485 836.3495 994.13529 835.97698 993.38867 835.58984 C 992.64205 835.17506 992.03455 834.80058 991.56445 834.46875 C 991.09435 834.13692 990.66448 833.9707 990.27734 833.9707 C 990.05612 833.9707 989.84982 834.09488 989.65625 834.34375 C 989.46268 834.56497 989.28311 834.87067 989.11719 835.25781 C 988.95127 835.64495 988.79842 836.07288 988.66016 836.54297 L 988.32812 837.95312 C 988.2452 838.42322 988.17643 838.85114 988.12109 839.23828 C 988.09343 839.62541 988.08008 839.94449 988.08008 840.19336 C 988.08008 840.5805 988.12016 840.89761 988.20312 841.14648 C 988.31373 841.39536 988.47995 841.63034 988.70117 841.85156 C 989.03301 842.15574 989.53165 842.48817 990.19531 842.84766 C 990.85898 843.20714 991.66138 843.52621 992.60156 843.80273 C 993.5694 844.07926 994.64688 844.31425 995.83594 844.50781 C 997.05265 844.70139 998.32502 844.79688 999.65234 844.79688 C 1002.4176 844.79687 1004.8916 844.43772 1007.0762 843.71875 C 1009.2884 842.97213 1011.1548 841.94811 1012.6758 840.64844 C 1014.2243 839.34876 1015.4012 837.81468 1016.2031 836.04492 C 1017.0051 834.2475 1017.4043 832.29886 1017.4043 830.19727 C 1017.4043 828.39985 1017.0605 826.90586 1016.3691 825.7168 C 1015.6778 824.52774 1014.8067 823.51903 1013.7559 822.68945 C 1012.7051 821.85988 1011.5702 821.16829 1010.3535 820.61523 C 1009.1368 820.06218 1008.0039 819.53681 1006.9531 819.03906 C 1005.9023 818.51366 1005.0159 817.95961 1004.2969 817.37891 C 1003.6056 816.7982 1003.2617 816.07988 1003.2617 815.22266 C 1003.2617 814.55899 1003.3859 813.93617 1003.6348 813.35547 C 1003.9113 812.77476 1004.2972 812.27807 1004.7949 811.86328 C 1005.2927 811.42084 1005.9155 811.07505 1006.6621 810.82617 C 1007.4364 810.5773 1008.3075 810.45312 1009.2754 810.45312 C 1010.5197 810.45313 1011.5972 810.5773 1012.5098 810.82617 C 1013.45 811.07505 1014.2657 811.36544 1014.957 811.69727 C 1015.6484 812.00145 1016.2292 812.29183 1016.6992 812.56836 C 1017.197 812.81723 1017.6268 812.94141 1017.9863 812.94141 C 1018.3181 812.94141 1018.6086 812.70642 1018.8574 812.23633 C 1019.134 811.73858 1019.3689 811.1578 1019.5625 810.49414 C 1019.756 809.83047 1019.8936 809.18093 1019.9766 808.54492 C 1020.0872 807.88126 1020.1426 807.38261 1020.1426 807.05078 C 1020.1426 806.38712 1019.9897 805.91715 1019.6855 805.64062 C 1019.409 805.33644 1018.9391 805.03269 1018.2754 804.72852 C 1017.6394 804.42434 1016.879 804.14731 1015.9941 803.89844 C 1015.1369 803.64956 1014.1568 803.45663 1013.0508 803.31836 C 1011.9723 803.15245 1010.8509 803.07031 1009.6895 803.07031 z M 585.68555 803.77539 C 584.66241 803.77539 583.8046 803.81548 583.11328 803.89844 C 582.44962 803.9814 581.89752 804.10557 581.45508 804.27148 C 581.04029 804.40974 580.72122 804.59128 580.5 804.8125 C 580.30639 805.00607 580.18222 805.24106 580.12695 805.51758 L 572.78516 842.43359 C 572.72988 842.71012 572.75853 842.95847 572.86914 843.17969 C 572.97975 843.37325 573.21473 843.53947 573.57422 843.67773 C 573.96135 843.81597 574.47142 843.91146 575.10742 843.9668 C 575.77109 844.04975 576.61553 844.0918 577.63867 844.0918 C 578.63417 844.0918 579.47665 844.04975 580.16797 843.9668 C 580.85928 843.91149 581.41334 843.81599 581.82812 843.67773 C 582.27056 843.53947 582.58768 843.37325 582.78125 843.17969 C 583.00244 842.95847 583.14193 842.71012 583.19727 842.43359 L 590.53906 805.51758 C 590.59434 805.24106 590.56569 805.00607 590.45508 804.8125 C 590.34447 804.59128 590.09612 804.40974 589.70898 804.27148 C 589.3495 804.10557 588.83749 803.9814 588.17383 803.89844 C 587.53781 803.81548 586.70869 803.77539 585.68555 803.77539 z M 718.45703 803.77539 C 717.43388 803.77539 716.57803 803.81548 715.88672 803.89844 C 715.22306 803.9814 714.669 804.10557 714.22656 804.27148 C 713.81177 804.40974 713.49466 804.59128 713.27344 804.8125 C 713.0799 805.00607 712.95572 805.24106 712.90039 805.51758 L 705.55859 842.43359 C 705.50332 842.71012 705.53002 842.95847 705.64062 843.17969 C 705.75124 843.37325 705.98622 843.53947 706.3457 843.67773 C 706.73284 843.81597 707.24485 843.91146 707.88086 843.9668 C 708.54452 844.04975 709.38701 844.0918 710.41016 844.0918 C 711.40565 844.0918 712.25009 844.04975 712.94141 843.9668 C 713.63272 843.91149 714.18482 843.81599 714.59961 843.67773 C 715.04205 843.53947 715.36112 843.37325 715.55469 843.17969 C 715.77588 842.95847 715.91342 842.71012 715.96875 842.43359 L 723.31055 805.51758 C 723.36582 805.24106 723.33912 805.00607 723.22852 804.8125 C 723.1179 804.59128 722.8676 804.40974 722.48047 804.27148 C 722.12098 804.10557 721.61093 803.9814 720.94727 803.89844 C 720.31126 803.81548 719.48018 803.77539 718.45703 803.77539 z M 890.35742 803.77539 C 889.33428 803.77539 888.47647 803.81548 887.78516 803.89844 C 887.12149 803.9814 886.56939 804.10557 886.12695 804.27148 C 885.71217 804.40974 885.39309 804.59128 885.17188 804.8125 C 884.97833 805.00607 884.85416 805.24106 884.79883 805.51758 L 877.45703 842.43359 C 877.40175 842.71012 877.4304 842.95847 877.54102 843.17969 C 877.65162 843.37325 877.88661 843.53947 878.24609 843.67773 C 878.63323 843.81597 879.14329 843.91146 879.7793 843.9668 C 880.44296 844.04975 881.2874 844.0918 882.31055 844.0918 C 883.30603 844.0918 884.14852 844.04975 884.83984 843.9668 C 885.53116 843.91149 886.08521 843.81599 886.5 843.67773 C 886.94244 843.53947 887.25956 843.37325 887.45312 843.17969 C 887.67439 842.95847 887.81387 842.71012 887.86914 842.43359 L 895.21094 805.51758 C 895.26622 805.24106 895.23757 805.00607 895.12695 804.8125 C 895.01635 804.59128 894.768 804.40974 894.38086 804.27148 C 894.02138 804.10557 893.50936 803.9814 892.8457 803.89844 C 892.20969 803.81548 891.38057 803.77539 890.35742 803.77539 z M 617.44336 810.49414 C 619.10251 810.49414 620.36152 810.86666 621.21875 811.61328 C 622.10363 812.33225 622.54492 813.24546 622.54492 814.35156 C 622.54492 815.12584 622.33861 815.85947 621.92383 816.55078 C 621.50903 817.21444 620.84613 817.79522 619.93359 818.29297 C 619.02106 818.79072 617.81746 819.19191 616.32422 819.49609 C 614.83098 819.77262 612.97783 819.91016 610.76562 819.91016 L 607.28125 819.91016 C 607.64074 818.61048 608.11071 817.39352 608.69141 816.25977 C 609.29977 815.09836 610.02004 814.10302 610.84961 813.27344 C 611.67919 812.41621 612.63249 811.73798 613.71094 811.24023 C 614.81704 810.74249 616.06073 810.49414 617.44336 810.49414 z M 824.18555 810.49414 C 825.8447 810.49414 827.1037 810.86666 827.96094 811.61328 C 828.84582 812.33225 829.28711 813.24546 829.28711 814.35156 C 829.28711 815.12584 829.0808 815.85947 828.66602 816.55078 C 828.25122 817.21444 827.58636 817.79522 826.67383 818.29297 C 825.76129 818.79072 824.55965 819.19191 823.06641 819.49609 C 821.57317 819.77262 819.72002 819.91016 817.50781 819.91016 L 814.02344 819.91016 C 814.38292 818.61048 814.85289 817.39352 815.43359 816.25977 C 816.04195 815.09836 816.76027 814.10302 817.58984 813.27344 C 818.41942 812.41621 819.37468 811.73798 820.45312 811.24023 C 821.55923 810.74249 822.80292 810.49414 824.18555 810.49414 z M 920.83008 811.9043 C 922.37862 811.9043 923.73312 812.29213 924.89453 813.06641 C 926.08359 813.81303 927.16302 814.94591 928.13086 816.4668 L 926.96875 822.06641 C 926.58161 823.97443 925.95879 825.77218 925.10156 827.45898 C 924.27198 829.14579 923.30532 830.62446 922.19922 831.89648 C 921.09311 833.14085 919.90287 834.13815 918.63086 834.88477 C 917.35884 835.60373 916.11515 835.96289 914.89844 835.96289 C 914.12416 835.96289 913.4593 835.8234 912.90625 835.54688 C 912.38086 835.24269 911.93956 834.82813 911.58008 834.30273 C 911.24824 833.74969 910.9999 833.08677 910.83398 832.3125 C 910.66807 831.53823 910.58398 830.68042 910.58398 829.74023 C 910.58398 828.55117 910.66807 827.29412 910.83398 825.9668 C 911.02755 824.63948 911.30262 823.3117 911.66211 821.98438 C 912.04924 820.65706 912.51921 819.38468 913.07227 818.16797 C 913.65297 816.95126 914.31783 815.88715 915.06445 814.97461 C 915.83872 814.03442 916.69653 813.28742 917.63672 812.73438 C 918.60456 812.18132 919.66866 811.9043 920.83008 811.9043 z M 447.41016 831.56641 C 445.97222 831.56641 444.85271 831.70394 444.05078 831.98047 C 443.24886 832.22934 442.62799 832.57514 442.18555 833.01758 C 441.74311 833.43236 441.36863 833.95774 441.06445 834.59375 C 440.78793 835.22976 440.55295 835.90603 440.35938 836.625 C 440.19346 837.31631 440.05592 837.99454 439.94531 838.6582 C 439.86235 839.32187 439.82031 839.87592 439.82031 840.31836 C 439.82031 841.00967 439.90245 841.61718 440.06836 842.14258 C 440.23428 842.64032 440.5113 843.05489 440.89844 843.38672 C 441.31322 843.71855 441.85196 843.9669 442.51562 844.13281 C 443.20694 844.29873 444.06475 844.38281 445.08789 844.38281 C 446.47052 844.38281 447.57668 844.24332 448.40625 843.9668 C 449.26348 843.71792 449.89967 843.38744 450.31445 842.97266 C 450.75689 842.53021 451.11605 841.99148 451.39258 841.35547 C 451.69676 840.69181 451.93174 840.01358 452.09766 839.32227 C 452.29122 838.6033 452.43071 837.91171 452.51367 837.24805 C 452.59663 836.58439 452.63672 836.04565 452.63672 835.63086 C 452.63672 835.0225 452.56795 834.46845 452.42969 833.9707 C 452.31908 833.4453 452.07073 833.01737 451.68359 832.68555 C 451.29646 832.32606 450.75772 832.04904 450.06641 831.85547 C 449.37509 831.6619 448.48861 831.56641 447.41016 831.56641 z M 501.30469 831.56641 C 499.86675 831.56641 498.74723 831.70394 497.94531 831.98047 C 497.14339 832.22934 496.52056 832.57514 496.07812 833.01758 C 495.63568 833.43236 495.26316 833.95774 494.95898 834.59375 C 494.68246 835.22976 494.44747 835.90603 494.25391 836.625 C 494.08799 837.31631 493.9485 837.99454 493.83789 838.6582 C 493.75493 839.32187 493.71484 839.87592 493.71484 840.31836 C 493.71484 841.00967 493.79697 841.61718 493.96289 842.14258 C 494.1288 842.64032 494.40584 843.05489 494.79297 843.38672 C 495.20776 843.71855 495.7465 843.9669 496.41016 844.13281 C 497.10147 844.29873 497.95928 844.38281 498.98242 844.38281 C 500.36505 844.38281 501.4712 844.24332 502.30078 843.9668 C 503.15801 843.71792 503.79419 843.38744 504.20898 842.97266 C 504.65142 842.53021 505.01058 841.99148 505.28711 841.35547 C 505.59128 840.69181 505.82627 840.01358 505.99219 839.32227 C 506.18575 838.6033 506.32329 837.91171 506.40625 837.24805 C 506.4892 836.58439 506.53125 836.04565 506.53125 835.63086 C 506.53125 835.0225 506.46248 834.46845 506.32422 833.9707 C 506.21361 833.4453 505.96331 833.01737 505.57617 832.68555 C 505.18903 832.32606 504.6503 832.04904 503.95898 831.85547 C 503.26767 831.6619 502.38313 831.56641 501.30469 831.56641 z "
         style="font-style:italic;font-variant:normal;font-weight:bold;font-stretch:normal;font-size:84.94870758px;font-family:Calibri;-inkscape-font-specification:'Calibri Bold Italic';letter-spacing:0.56632477px;fill:#ffffff;fill-opacity:1;stroke:#000000;stroke-width:1.99999999;stroke-miterlimit:4;stroke-dasharray:none;stroke-opacity:1"
         id="path4173"
         d="m 589.00391,787.51562 c -1.18906,0 -2.18441,0.0955 -2.98633,0.28907 -0.80192,0.19356 -1.48015,0.51264 -2.0332,0.95508 -0.55306,0.44244 -0.99435,1.00985 -1.32618,1.70117 -0.33183,0.69131 -0.59549,1.5338 -0.78906,2.52929 -0.22125,1.02315 -0.30338,1.89432 -0.24805,2.61329 0.0553,0.69131 0.26161,1.25873 0.6211,1.70117 0.38713,0.41478 0.94119,0.71854 1.66015,0.91211 0.74662,0.16592 1.69993,0.24804 2.86133,0.24804 1.18906,0 2.1844,-0.0821 2.98633,-0.24804 0.80193,-0.19357 1.48015,-0.49733 2.0332,-0.91211 0.55305,-0.44244 0.99434,-1.00986 1.32618,-1.70117 0.33183,-0.71897 0.59549,-1.59014 0.78906,-2.61329 0.19359,-0.99549 0.26236,-1.83798 0.20703,-2.52929 -0.0276,-0.69132 -0.23396,-1.25873 -0.62109,-1.70117 -0.35949,-0.44244 -0.91354,-0.76152 -1.66016,-0.95508 -0.71897,-0.19357 -1.65891,-0.28907 -2.82031,-0.28907 z m 132.77148,0 c -1.18906,0 -2.1844,0.0955 -2.98633,0.28907 -0.80192,0.19356 -1.4782,0.51264 -2.03125,0.95508 -0.55305,0.44244 -0.99629,1.00985 -1.32812,1.70117 -0.33183,0.69131 -0.59549,1.5338 -0.78907,2.52929 -0.22124,1.02315 -0.30338,1.89432 -0.24804,2.61329 0.0553,0.69131 0.26357,1.25873 0.62304,1.70117 0.38715,0.41478 0.93924,0.71854 1.65821,0.91211 0.74662,0.16592 1.69992,0.24804 2.86133,0.24804 1.18906,0 2.18635,-0.0821 2.98828,-0.24804 0.80192,-0.19357 1.4782,-0.49733 2.03125,-0.91211 0.55305,-0.44244 0.99629,-1.00986 1.32812,-1.70117 0.33183,-0.71897 0.59355,-1.59014 0.78711,-2.61329 0.1936,-0.99549 0.26237,-1.83798 0.20703,-2.52929 -0.0276,-0.69132 -0.23396,-1.25873 -0.62109,-1.70117 -0.35949,-0.44244 -0.91354,-0.76152 -1.66016,-0.95508 -0.71896,-0.19357 -1.6589,-0.28907 -2.82031,-0.28907 z m 171.90039,0 c -1.18906,0 -2.18441,0.0955 -2.98633,0.28907 -0.80192,0.19356 -1.48015,0.51264 -2.0332,0.95508 -0.55305,0.44244 -0.99435,1.00985 -1.32617,1.70117 -0.33184,0.69131 -0.5955,1.5338 -0.78906,2.52929 -0.22125,1.02315 -0.30338,1.89432 -0.24805,2.61329 0.0553,0.69131 0.26161,1.25873 0.62109,1.70117 0.38714,0.41478 0.94119,0.71854 1.66016,0.91211 0.74662,0.16592 1.69992,0.24804 2.86133,0.24804 1.18906,0 2.1844,-0.0821 2.98633,-0.24804 0.80192,-0.19357 1.48014,-0.49733 2.0332,-0.91211 0.55304,-0.44244 0.99434,-1.00986 1.32617,-1.70117 0.33183,-0.71897 0.5955,-1.59014 0.78906,-2.61329 0.1936,-0.99549 0.26237,-1.83798 0.20703,-2.52929 -0.0276,-0.69132 -0.23591,-1.25873 -0.62304,-1.70117 -0.35948,-0.44244 -0.91159,-0.76152 -1.65821,-0.95508 -0.71896,-0.19357 -1.6589,-0.28907 -2.82031,-0.28907 z m -460.35351,2.4043 c -1.0508,0 -1.93533,0.042 -2.6543,0.125 -0.71897,0.0553 -1.31311,0.15276 -1.7832,0.29102 -0.44244,0.13826 -0.77488,0.31784 -0.9961,0.53906 -0.19354,0.19357 -0.31771,0.42855 -0.37305,0.70508 l -7.50781,37.24804 c -0.22122,1.18907 -0.49825,2.18441 -0.83008,2.98633 -0.33183,0.80193 -0.73303,1.46484 -1.20312,1.99024 -0.44244,0.49774 -0.98117,0.87222 -1.61719,1.12109 -0.636,0.22122 -1.36768,0.33203 -2.19726,0.33203 -0.80192,0 -1.46679,-0.0841 -1.99219,-0.25 -0.49775,-0.19356 -0.93904,-0.38651 -1.32617,-0.58008 -0.35949,-0.22122 -0.67855,-0.41416 -0.95508,-0.58007 -0.27653,-0.16592 -0.59365,-0.25 -0.95313,-0.25 -0.22122,0 -0.44284,0.16621 -0.66406,0.49804 -0.22122,0.30418 -0.42947,0.71874 -0.62305,1.24414 -0.19356,0.49774 -0.35783,1.06516 -0.49609,1.70118 -0.16592,0.60835 -0.30541,1.20249 -0.41601,1.7832 -0.11065,0.58071 -0.19279,1.10608 -0.24805,1.57617 -0.0553,0.47009 -0.084,0.81589 -0.084,1.03711 0,0.5254 0.11082,0.93997 0.33204,1.24414 0.19356,0.27653 0.67689,0.58028 1.45117,0.91211 0.74662,0.33183 1.70187,0.59549 2.86328,0.78906 1.18906,0.19357 2.43275,0.28907 3.73242,0.28907 2.46108,-10e-6 4.59126,-0.35916 6.38867,-1.07813 1.82508,-0.71897 3.37252,-1.72767 4.64453,-3.02734 1.29968,-1.32732 2.35042,-2.91681 3.15235,-4.76953 0.80192,-1.88038 1.4381,-3.95515 1.9082,-6.22266 l 7.5918,-37.99414 c 0.0553,-0.30418 -1.1e-4,-0.55253 -0.16602,-0.7461 -0.13826,-0.22122 -0.41528,-0.40079 -0.83008,-0.53906 -0.38713,-0.13823 -0.92587,-0.23568 -1.61718,-0.29101 -0.66366,-0.0553 -1.50811,-0.084 -2.53125,-0.084 z m 133.33789,0.084 c -0.96784,0 -1.76829,0.042 -2.4043,0.125 -0.63601,0.0553 -1.16139,0.15079 -1.57617,0.28906 -0.38714,0.11061 -0.67753,0.27683 -0.8711,0.49805 -0.19354,0.19357 -0.31771,0.42855 -0.37304,0.70507 l -5.10352,25.30274 c -0.38713,1.99098 -0.77301,4.05044 -1.16015,6.17969 -0.35948,2.10159 -0.69192,4.14768 -0.9961,6.13867 l -0.082,0 c -0.47009,-1.52089 -0.9267,-3.04161 -1.36914,-4.5625 -0.41479,-1.5209 -0.88476,-3.05497 -1.41016,-4.60352 l -8.00586,-24.18164 c -0.30418,-1.0508 -0.63661,-1.93728 -0.99609,-2.65625 -0.33183,-0.71897 -0.73303,-1.29975 -1.20312,-1.74219 -0.44245,-0.47009 -0.99455,-0.80057 -1.65821,-0.99414 -0.63601,-0.22122 -1.40973,-0.33203 -2.32226,-0.33203 l -5.6836,0 c -1.1061,0 -2.10145,0.33244 -2.98633,0.9961 -0.88488,0.636 -1.45229,1.60267 -1.70117,2.90234 l -9.66406,48.28125 c -0.083,0.27653 -0.083,0.52487 0,0.74609 0.11061,0.22122 0.33223,0.40275 0.66406,0.54102 0.33184,0.13826 0.80181,0.24712 1.41016,0.33008 0.63601,0.0829 1.43841,0.125 2.40625,0.125 0.96784,0 1.76829,-0.0421 2.4043,-0.125 0.66366,-0.083 1.20434,-0.19182 1.61914,-0.33008 0.41478,-0.13827 0.71854,-0.3198 0.91211,-0.54102 0.22119,-0.22122 0.35872,-0.46956 0.41406,-0.74609 l 5.47656,-27.41797 c 0.44244,-2.12925 0.84169,-4.24411 1.20117,-6.3457 0.35948,-2.12925 0.67855,-4.28615 0.95508,-6.47071 l 0.082,0 c 0.4701,1.85272 0.95538,3.71924 1.45313,5.59961 0.5254,1.88038 1.09086,3.74689 1.69922,5.59961 l 7.92382,23.97461 c 0.38714,1.32733 0.75966,2.42012 1.11914,3.27735 0.35949,0.85723 0.76069,1.53545 1.20313,2.0332 0.47009,0.49775 1.0222,0.84354 1.6582,1.03711 0.63602,0.19357 1.45177,0.28906 2.44727,0.28906 l 4.64648,0 c 0.55306,0 1.07843,-0.0688 1.57617,-0.20703 0.5254,-0.16592 0.99537,-0.41427 1.41016,-0.74609 0.44244,-0.33184 0.81496,-0.7464 1.11914,-1.24414 0.33183,-0.49775 0.55345,-1.06517 0.66406,-1.70118 l 9.70703,-48.40625 c 0.0553,-0.27652 0.0266,-0.5115 -0.084,-0.70507 -0.11061,-0.22122 -0.33028,-0.38744 -0.66211,-0.49805 -0.33183,-0.1383 -0.81711,-0.2338 -1.45312,-0.28906 -0.63601,-0.083 -1.43841,-0.125 -2.40625,-0.125 z m -101.8418,0.16601 c -0.33183,0 -0.63754,0.15091 -0.91406,0.45508 -0.27653,0.27653 -0.52488,0.651 -0.7461,1.12109 -0.22122,0.4701 -0.41416,0.99547 -0.58008,1.57618 -0.13826,0.55305 -0.26244,1.10515 -0.37304,1.6582 -0.0829,0.5254 -0.1517,1.01068 -0.20703,1.45312 -0.0277,0.4148 -0.043,0.73191 -0.043,0.95313 0,0.5254 0.0688,0.93997 0.20703,1.24414 0.16591,0.30418 0.45631,0.45703 0.87109,0.45703 l 13.35742,0 -8.6289,43.26172 c -0.0553,0.27653 -0.0266,0.52487 0.084,0.74609 0.13826,0.22122 0.38661,0.40275 0.7461,0.54102 0.38713,0.13826 0.92586,0.24712 1.61718,0.33008 0.69132,0.0829 1.56249,0.125 2.61329,0.125 1.07845,0 1.96493,-0.0421 2.65625,-0.125 0.71896,-0.083 1.29974,-0.19182 1.74218,-0.33008 0.4701,-0.13827 0.81394,-0.3198 1.03516,-0.54102 0.22123,-0.22122 0.37408,-0.46956 0.45703,-0.74609 l 8.62695,-43.26172 13.48243,0 c 0.33182,0 0.63558,-0.15285 0.91211,-0.45703 0.30418,-0.30417 0.55252,-0.69006 0.74609,-1.16016 0.22122,-0.47009 0.4008,-0.98211 0.53906,-1.53515 0.16592,-0.58071 0.29009,-1.13476 0.37305,-1.66016 0.1106,-0.5254 0.17936,-0.99537 0.20703,-1.41016 0.0553,-0.44244 0.084,-0.75955 0.084,-0.95312 0,-0.55305 -0.0974,-0.98293 -0.29101,-1.28711 -0.16592,-0.30417 -0.41427,-0.45508 -0.7461,-0.45508 l -37.82812,0 z m 296.5,0 c -1.02315,0 -1.90768,0.27703 -2.6543,0.83008 -0.74662,0.5254 -1.2319,1.39657 -1.45312,2.61328 l -9.37305,46.78711 c -0.13829,0.66366 -0.16694,1.21772 -0.084,1.66016 0.1106,0.44244 0.29019,0.8016 0.53906,1.07812 0.27653,0.24888 0.60895,0.42845 0.99609,0.53906 0.41479,0.11061 0.84272,0.16602 1.28516,0.16602 l 13.64648,0 c 3.7884,0 7.05146,-0.30376 9.78907,-0.91211 2.7376,-0.60836 5.2002,-1.4528 7.38476,-2.53125 2.18455,-1.10611 4.10647,-2.4052 5.76563,-3.89844 1.6868,-1.49324 3.1368,-3.09804 4.35351,-4.8125 1.21672,-1.74211 2.22738,-3.55321 3.0293,-5.43359 0.82958,-1.90803 1.47912,-3.81658 1.94922,-5.72461 0.49774,-1.93568 0.84354,-3.82892 1.03711,-5.68164 0.22122,-1.85273 0.33203,-3.60843 0.33203,-5.26758 0,-3.18005 -0.48529,-5.97313 -1.45313,-8.37891 -0.94018,-2.43342 -2.37682,-4.46615 -4.3125,-6.09765 -1.90802,-1.6315 -4.29991,-2.86183 -7.17578,-3.69141 -2.84821,-0.82957 -6.40165,-1.24414 -10.66015,-1.24414 l -12.94141,0 z m 5.76562,8.54492 5.68164,0 c 2.76527,0 4.96421,0.30375 6.59571,0.91211 1.65915,0.60836 3.01365,1.45085 4.06445,2.5293 1.0508,1.07845 1.81116,2.36418 2.28125,3.85742 0.47009,1.49324 0.70508,3.1114 0.70508,4.85352 0,1.76976 -0.1509,3.59618 -0.45508,5.47656 -0.30418,1.88037 -0.80283,3.7182 -1.49414,5.51563 -0.66366,1.79741 -1.53483,3.51107 -2.61328,5.14257 -1.05079,1.60386 -2.33653,3.02907 -3.85742,4.27344 -1.49324,1.21671 -3.23558,2.18338 -5.22657,2.90234 -1.96333,0.69132 -4.3953,1.03711 -7.29882,1.03711 l -5.72461,0 7.34179,-36.5 z m -148.68554,4.35547 c -2.90352,0 -5.49031,0.42793 -7.75782,1.28516 -2.26751,0.85723 -4.27155,2.00542 -6.01367,3.44336 -1.71446,1.41028 -3.17977,3.05517 -4.39648,4.93555 -1.21671,1.88037 -2.21206,3.8577 -2.98633,5.93164 -0.77427,2.04629 -1.34168,4.13442 -1.70117,6.26367 -0.33183,2.10159 -0.49805,4.07891 -0.49805,5.93164 0,2.40577 0.33244,4.49195 0.9961,6.26172 0.66366,1.7421 1.659,3.18069 2.98632,4.31445 1.32732,1.13375 2.97222,1.97624 4.93555,2.5293 1.99099,0.55305 4.3141,0.83008 6.96875,0.83008 1.60385,-10e-6 3.17997,-0.0955 4.72852,-0.28907 1.54854,-0.16591 2.94509,-0.38753 4.18945,-0.66406 1.24437,-0.27653 2.30847,-0.58028 3.19336,-0.91211 0.88488,-0.33183 1.49434,-0.66426 1.82617,-0.99609 0.30417,-0.27652 0.56588,-0.67773 0.78711,-1.20313 0.24887,-0.5254 0.44377,-1.07945 0.58203,-1.66015 0.16591,-0.60836 0.29009,-1.21586 0.37305,-1.82422 0.083,-0.60836 0.12305,-1.1471 0.12305,-1.61719 0,-0.41479 -0.0688,-0.71854 -0.20704,-0.91211 -0.13826,-0.19357 -0.37324,-0.29102 -0.70507,-0.29102 -0.33184,0 -0.85721,0.13754 -1.57618,0.41407 -0.71896,0.24887 -1.63218,0.53926 -2.73828,0.87109 -1.07845,0.30418 -2.34886,0.59457 -3.81445,0.87109 -1.43793,0.24888 -3.06947,0.37305 -4.89453,0.37305 -2.5717,0 -4.4382,-0.56546 -5.59961,-1.69922 -1.16141,-1.13376 -1.74219,-2.82069 -1.74219,-5.06054 0,-0.5254 0.0267,-1.09282 0.082,-1.70118 0.0553,-0.636 0.1394,-1.27219 0.25,-1.9082 l 3.81446,0 c 4.03727,0 7.50858,-0.30375 10.4121,-0.91211 2.93118,-0.60835 5.33643,-1.47952 7.2168,-2.61328 1.90803,-1.16141 3.30457,-2.53123 4.18946,-4.10742 0.91253,-1.60386 1.36914,-3.39964 1.36914,-5.39063 0,-1.32732 -0.29039,-2.61305 -0.8711,-3.85742 -0.55304,-1.27202 -1.41085,-2.39349 -2.57226,-3.36133 -1.16141,-0.99549 -2.65345,-1.78258 -4.47852,-2.36328 -1.79742,-0.60836 -3.95432,-0.91211 -6.4707,-0.91211 z m 47.39453,0 c -1.54855,0 -3.05395,0.26171 -4.51953,0.78711 -1.43794,0.49775 -2.77908,1.14729 -4.02344,1.94922 -1.21671,0.80192 -2.3095,1.71514 -3.27734,2.73828 -0.96784,0.9955 -1.74156,1.97747 -2.32227,2.94531 l 1.20117,-6.09765 c 0.0553,-0.27653 0.0286,-0.51151 -0.082,-0.70508 -0.083,-0.22122 -0.2759,-0.38743 -0.58008,-0.49805 -0.30417,-0.13823 -0.73405,-0.23568 -1.28711,-0.29101 -0.5254,-0.083 -1.21699,-0.12305 -2.07422,-0.12305 -0.82957,0 -1.54789,0.0401 -2.15624,0.12305 -0.58071,0.0553 -1.06404,0.15275 -1.45118,0.29101 -0.35948,0.11062 -0.63651,0.27683 -0.83008,0.49805 -0.16588,0.19357 -0.27669,0.42855 -0.33203,0.70508 l -7.42382,37.04101 c -0.0553,0.27653 -0.0286,0.52488 0.082,0.7461 0.1106,0.19356 0.34559,0.35978 0.70508,0.49804 0.38713,0.13824 0.89914,0.23373 1.53515,0.28907 0.66366,0.0829 1.50615,0.125 2.5293,0.125 0.99549,0 1.83993,-0.0421 2.53125,-0.125 0.69131,-0.0553 1.24341,-0.15081 1.6582,-0.28907 0.44245,-0.13826 0.76151,-0.30448 0.95508,-0.49804 0.22119,-0.22122 0.35873,-0.46957 0.41406,-0.7461 l 3.35938,-16.75781 c 0.35948,-1.85272 0.95558,-3.59505 1.78515,-5.22656 0.85724,-1.65915 1.8239,-3.09774 2.90235,-4.31445 1.1061,-1.24437 2.2543,-2.22635 3.44336,-2.94532 1.18906,-0.71896 2.33725,-1.07812 3.44336,-1.07812 1.21671,0 2.07256,0.4012 2.57031,1.20312 0.49774,0.77428 0.74805,1.76962 0.74805,2.98633 -10e-6,0.63601 -0.0421,1.30088 -0.125,1.99219 -0.0553,0.66367 -0.16612,1.31321 -0.33204,1.94922 l -4.39648,22.1914 c -0.0553,0.27653 -0.0286,0.52488 0.082,0.7461 0.13826,0.19356 0.38856,0.35978 0.74805,0.49804 0.35948,0.13824 0.85618,0.23373 1.49218,0.28907 0.66367,0.0829 1.49279,0.125 2.48829,0.125 1.02314,0 1.86758,-0.0421 2.53125,-0.125 0.69131,-0.0553 1.25873,-0.15081 1.70117,-0.28907 0.44244,-0.13826 0.75956,-0.30448 0.95312,-0.49804 0.2212,-0.22122 0.35873,-0.46957 0.41407,-0.7461 l 3.36132,-16.75781 c 0.35948,-1.85272 0.95363,-3.59505 1.78321,-5.22656 0.85723,-1.65915 1.82389,-3.09774 2.90234,-4.31445 1.10611,-1.24437 2.2543,-2.22635 3.44336,-2.94532 1.18906,-0.71896 2.33726,-1.07812 3.44336,-1.07812 1.24437,0 2.10022,0.4012 2.57031,1.20312 0.49775,0.80193 0.74805,1.85268 0.74805,3.15235 0,0.63601 -0.042,1.27219 -0.125,1.9082 -0.0829,0.60836 -0.1804,1.23118 -0.29102,1.86719 l -4.4375,22.1914 c -0.0829,0.27653 -0.0696,0.52488 0.041,0.7461 0.13827,0.19356 0.38857,0.35978 0.74805,0.49804 0.35948,0.13824 0.86954,0.23373 1.5332,0.28907 0.66366,0.0829 1.49474,0.125 2.49023,0.125 1.02315,0 1.86564,-0.0421 2.5293,-0.125 0.69131,-0.0553 1.25873,-0.15081 1.70117,-0.28907 0.44244,-0.13826 0.75956,-0.30448 0.95313,-0.49804 0.22119,-0.22122 0.36068,-0.46957 0.41601,-0.7461 l 4.5625,-22.85547 c 0.22122,-1.02314 0.38548,-2.01848 0.4961,-2.98632 0.1106,-0.9955 0.16601,-1.97748 0.16601,-2.94532 0,-1.49324 -0.17958,-2.87641 -0.53906,-4.14843 -0.35949,-1.29967 -0.94027,-2.41919 -1.74219,-3.35938 -0.80192,-0.96784 -1.86604,-1.71483 -3.19336,-2.24023 -1.29967,-0.55306 -2.91783,-0.82813 -4.85351,-0.82813 -1.5209,0 -2.99957,0.26171 -4.4375,0.78711 -1.43794,0.49775 -2.77907,1.14729 -4.02344,1.94922 -1.21671,0.80192 -2.32287,1.70177 -3.31836,2.69727 -0.96784,0.99549 -1.77024,1.99083 -2.40625,2.98632 -0.11061,-1.18906 -0.37232,-2.29521 -0.78711,-3.31835 -0.38713,-1.02315 -0.96791,-1.90768 -1.74219,-2.6543 -0.74662,-0.77427 -1.71523,-1.37036 -2.90429,-1.78516 -1.16142,-0.44244 -2.54459,-0.66211 -4.14844,-0.66211 z m 159.3457,0 c -2.90352,0 -5.48835,0.42793 -7.75586,1.28516 -2.26751,0.85723 -4.27156,2.00542 -6.01367,3.44336 -1.71446,1.41028 -3.17977,3.05517 -4.39648,4.93555 -1.21672,1.88037 -2.21401,3.8577 -2.98828,5.93164 -0.77427,2.04629 -1.33974,4.13442 -1.69922,6.26367 -0.33183,2.10159 -0.49805,4.07891 -0.49805,5.93164 0,2.40577 0.33243,4.49195 0.99609,6.26172 0.66366,1.7421 1.659,3.18069 2.98633,4.31445 1.32732,1.13375 2.97221,1.97624 4.93555,2.5293 1.99098,0.55305 4.3141,0.83008 6.96875,0.83008 1.60384,-10e-6 3.17997,-0.0955 4.72851,-0.28907 1.54855,-0.16591 2.9451,-0.38753 4.18946,-0.66406 1.24436,-0.27653 2.30847,-0.58028 3.19336,-0.91211 0.88488,-0.33183 1.49238,-0.66426 1.82422,-0.99609 0.30417,-0.27652 0.56784,-0.67773 0.78906,-1.20313 0.24887,-0.5254 0.44181,-1.07945 0.58008,-1.66015 0.16591,-0.60836 0.29008,-1.21586 0.37304,-1.82422 0.083,-0.60836 0.125,-1.1471 0.125,-1.61719 0,-0.41479 -0.0688,-0.71854 -0.20703,-0.91211 -0.13826,-0.19357 -0.37324,-0.29102 -0.70508,-0.29102 -0.33183,0 -0.8572,0.13754 -1.57617,0.41407 -0.71897,0.24887 -1.63218,0.53926 -2.73828,0.87109 -1.07845,0.30418 -2.35082,0.59457 -3.81641,0.87109 -1.43793,0.24888 -3.06946,0.37305 -4.89453,0.37305 -2.57169,0 -4.4382,-0.56546 -5.59961,-1.69922 -1.1614,-1.13376 -1.74218,-2.82069 -1.74218,-5.06054 0,-0.5254 0.0286,-1.09282 0.084,-1.70118 0.0553,-0.636 0.13743,-1.27219 0.24805,-1.9082 l 3.8164,0 c 4.03728,0 7.50859,-0.30375 10.41211,-0.91211 2.93118,-0.60835 5.33643,-1.47952 7.2168,-2.61328 1.90803,-1.16141 3.30457,-2.53123 4.18945,-4.10742 0.91254,-1.60386 1.36914,-3.39964 1.36914,-5.39063 0,-1.32732 -0.29038,-2.61305 -0.87109,-3.85742 -0.55305,-1.27202 -1.41085,-2.39349 -2.57227,-3.36133 -1.1614,-0.99549 -2.6554,-1.78258 -4.48046,-2.36328 -1.79742,-0.60836 -3.95432,-0.91211 -6.47071,-0.91211 z m 38.27149,0 c -2.59934,0 -4.92246,0.35916 -6.96875,1.07813 -2.04629,0.69131 -3.78863,1.67329 -5.22657,2.94531 -1.43794,1.24437 -2.52877,2.70968 -3.27539,4.39648 -0.74662,1.68681 -1.12109,3.51128 -1.12109,5.47461 0,1.79742 0.33243,3.29141 0.99609,4.48047 0.69132,1.18906 1.54912,2.18441 2.57227,2.98633 1.02315,0.80193 2.1293,1.4782 3.31836,2.03125 1.21671,0.55305 2.33623,1.09375 3.35937,1.61914 1.02315,0.5254 1.86563,1.09086 2.5293,1.69922 0.69131,0.60835 1.03711,1.39739 1.03711,2.36523 0,0.69132 -0.13754,1.34086 -0.41406,1.94922 -0.24888,0.60836 -0.65007,1.1471 -1.20313,1.61719 -0.55305,0.4701 -1.25801,0.84457 -2.11523,1.12109 -0.82958,0.24888 -1.81156,0.37305 -2.94532,0.37305 -1.63149,0 -3.00131,-0.16622 -4.10742,-0.49805 -1.07844,-0.35948 -1.98971,-0.732 -2.73632,-1.11914 -0.74663,-0.41478 -1.35608,-0.78926 -1.82618,-1.12109 -0.47009,-0.33183 -0.89801,-0.49805 -1.28515,-0.49805 -0.22122,0 -0.42948,0.12418 -0.62305,0.37305 -0.19357,0.22122 -0.37315,0.52692 -0.53906,0.91406 -0.16592,0.38714 -0.31682,0.81507 -0.45508,1.28516 l -0.33203,1.41015 c -0.0829,0.4701 -0.1517,0.89802 -0.20703,1.28516 -0.0277,0.38713 -0.043,0.70621 -0.043,0.95508 0,0.38714 0.042,0.70425 0.125,0.95312 0.11061,0.24888 0.27682,0.48386 0.49805,0.70508 0.33182,0.30418 0.83047,0.63661 1.49414,0.9961 0.66366,0.35948 1.46411,0.67855 2.40429,0.95507 0.96784,0.27653 2.04727,0.51152 3.23633,0.70508 1.21671,0.19358 2.48908,0.28907 3.81641,0.28907 2.76525,-10e-6 5.23927,-0.35916 7.42383,-1.07813 2.2122,-0.74662 4.07871,-1.77064 5.5996,-3.07031 1.54854,-1.29968 2.72347,-2.83376 3.5254,-4.60352 0.80192,-1.79742 1.20312,-3.74606 1.20312,-5.84765 0,-1.79742 -0.3458,-3.29141 -1.03711,-4.48047 -0.69131,-1.18906 -1.56248,-2.19777 -2.61328,-3.02735 -1.0508,-0.82957 -2.18368,-1.52116 -3.40039,-2.07422 -1.21671,-0.55305 -2.35155,-1.07842 -3.40234,-1.57617 -1.05081,-0.5254 -1.93534,-1.07945 -2.6543,-1.66015 -0.69132,-0.58071 -1.03711,-1.29903 -1.03711,-2.15625 0,-0.66367 0.12417,-1.28649 0.37305,-1.86719 0.27652,-0.58071 0.66436,-1.0774 1.1621,-1.49219 0.49774,-0.44244 1.12057,-0.78823 1.86719,-1.03711 0.77428,-0.24887 1.64544,-0.37305 2.61328,-0.37305 1.24437,10e-6 2.32185,0.12418 3.23438,0.37305 0.94019,0.24888 1.75594,0.53927 2.44726,0.8711 0.69132,0.30418 1.2721,0.59456 1.74219,0.87109 0.49775,0.24887 0.92568,0.37305 1.28516,0.37305 0.33183,0 0.62222,-0.23499 0.87109,-0.70508 0.27653,-0.49775 0.51151,-1.07853 0.70508,-1.74219 0.19357,-0.66367 0.33306,-1.31321 0.41602,-1.94922 0.1106,-0.66366 0.16601,-1.16231 0.16601,-1.49414 0,-0.66366 -0.15286,-1.13363 -0.45703,-1.41016 -0.27653,-0.30417 -0.74649,-0.60793 -1.41016,-0.9121 -0.636,-0.30418 -1.39637,-0.58121 -2.28125,-0.83008 -0.85723,-0.24888 -1.83921,-0.44181 -2.94531,-0.58008 -1.07845,-0.16591 -2.19797,-0.24805 -3.35937,-0.24805 z m 56.79687,0 c -2.43343,0 -4.63042,0.42793 -6.59375,1.28516 -1.93569,0.85723 -3.66466,2.01879 -5.18555,3.48437 -1.49324,1.43794 -2.77896,3.09619 -3.85742,4.97657 -1.07844,1.88038 -1.9783,3.84433 -2.69726,5.89062 -0.69132,2.04629 -1.20137,4.10575 -1.53321,6.17969 -0.33183,2.07395 -0.49804,4.01118 -0.49804,5.80859 0,1.99099 0.19294,3.84218 0.58008,5.55664 0.41478,1.71446 1.0777,3.20845 1.99023,4.48047 0.91254,1.27202 2.08941,2.26736 3.52734,2.98633 1.46559,0.71897 3.26138,1.07813 5.39063,1.07813 1.38262,0 2.75244,-0.22162 4.10742,-0.66407 1.38263,-0.41478 2.66836,-0.98025 3.85742,-1.69922 1.18906,-0.71896 2.23981,-1.52137 3.15235,-2.40625 0.94018,-0.91254 1.6585,-1.82574 2.15625,-2.73828 -0.30418,0.77428 -0.63466,1.76962 -0.99414,2.98633 -0.35948,1.21671 -0.71864,2.72407 -1.07813,4.52149 -0.22122,1.13375 -0.59569,2.089 -1.12109,2.86328 -0.49775,0.77427 -1.16066,1.40851 -1.99024,1.90625 -0.82958,0.49774 -1.81156,0.85885 -2.94531,1.08007 -1.10611,0.22123 -2.36511,0.33204 -3.77539,0.33204 -1.74211,0 -3.20743,-0.12613 -4.39649,-0.375 -1.18906,-0.22122 -2.1844,-0.46957 -2.98632,-0.7461 -0.80192,-0.27652 -1.45148,-0.53823 -1.94922,-0.78711 -0.4701,-0.22122 -0.87129,-0.33203 -1.20313,-0.33203 -0.33183,0 -0.62222,0.12417 -0.87109,0.37305 -0.24887,0.27652 -0.48386,0.60896 -0.70508,0.99609 -0.19357,0.41479 -0.35979,0.86944 -0.49805,1.36719 -0.13826,0.5254 -0.26244,1.02405 -0.37304,1.49414 -0.0829,0.47009 -0.13835,0.89802 -0.16602,1.28516 -0.0277,0.38713 -0.041,0.66416 -0.041,0.83007 0,0.49775 0.0821,0.88559 0.24804,1.16211 0.16592,0.27653 0.47163,0.52488 0.91407,0.7461 1.24436,0.5807 2.79181,1.05067 4.64453,1.41015 1.88038,0.38714 3.99523,0.58008 6.3457,0.58008 3.263,0 6.11149,-0.31711 8.54492,-0.95312 2.46108,-0.63601 4.54921,-1.59126 6.26367,-2.86328 1.71446,-1.24437 3.09764,-2.80518 4.14844,-4.68555 1.05079,-1.85272 1.82452,-4.0383 2.32227,-6.55469 l 7.75586,-38.5332 c 0.0553,-0.27653 0.0286,-0.51151 -0.082,-0.70508 -0.1106,-0.22122 -0.33222,-0.38743 -0.66406,-0.49805 -0.30418,-0.13823 -0.73211,-0.23568 -1.28515,-0.29101 -0.55306,-0.083 -1.24464,-0.12305 -2.07422,-0.12305 -1.68681,0 -2.91714,0.12417 -3.69141,0.37305 -0.74662,0.24887 -1.1765,0.66343 -1.28711,1.24414 l -0.66211,3.27734 c -1.32732,-1.82507 -2.87672,-3.20825 -4.64648,-4.14844 -1.76977,-0.96784 -3.80249,-1.45117 -6.09766,-1.45117 z m 53.49414,0 c -1.60385,0 -3.15324,0.26171 -4.64648,0.78711 -1.46559,0.49775 -2.83346,1.14729 -4.10547,1.94922 -1.24437,0.80192 -2.35052,1.71514 -3.31836,2.73828 -0.96784,0.9955 -1.74156,1.97747 -2.32227,2.94531 l 1.20118,-6.09765 c 0.0553,-0.27653 0.0286,-0.51151 -0.082,-0.70508 -0.083,-0.22122 -0.2759,-0.38743 -0.58007,-0.49805 -0.30418,-0.13823 -0.73406,-0.23568 -1.28711,-0.29101 -0.5254,-0.083 -1.217,-0.12305 -2.07422,-0.12305 -0.82958,0 -1.5479,0.0401 -2.15625,0.12305 -0.58071,0.0553 -1.06404,0.15275 -1.45117,0.29101 -0.35949,0.11062 -0.63652,0.27683 -0.83008,0.49805 -0.16589,0.19357 -0.2767,0.42855 -0.33203,0.70508 l -7.42383,37.04101 c -0.0553,0.27653 -0.0286,0.52488 0.082,0.7461 0.11061,0.19356 0.3456,0.35978 0.70508,0.49804 0.38714,0.13824 0.89915,0.23373 1.53515,0.28907 0.66366,0.0829 1.50615,0.125 2.5293,0.125 0.99549,0 1.83994,-0.0421 2.53125,-0.125 0.69131,-0.0553 1.24342,-0.15081 1.6582,-0.28907 0.44245,-0.13826 0.76152,-0.30448 0.95508,-0.49804 0.2212,-0.22122 0.35873,-0.46957 0.41406,-0.7461 l 3.35938,-16.75781 c 0.35948,-1.85272 0.96895,-3.59505 1.82617,-5.22656 0.85724,-1.65915 1.82389,-3.09774 2.90235,-4.31445 1.1061,-1.24437 2.26766,-2.22635 3.48437,-2.94532 1.24437,-0.71896 2.43461,-1.07812 3.56836,-1.07812 1.24437,0 2.1289,0.4012 2.6543,1.20312 0.5254,0.80193 0.78711,1.82595 0.78711,3.07032 0,0.52539 -0.0401,1.13289 -0.12305,1.82421 -0.0553,0.69132 -0.15276,1.36955 -0.29102,2.03321 l -4.48047,22.1914 c -0.0553,0.27653 -0.0266,0.52488 0.084,0.7461 0.13826,0.19356 0.38661,0.35978 0.74609,0.49804 0.35948,0.13824 0.85813,0.23373 1.49414,0.28907 0.66366,0.0829 1.50615,0.125 2.5293,0.125 1.02315,0 1.86759,-0.0421 2.53125,-0.125 0.69131,-0.0553 1.24342,-0.15081 1.6582,-0.28907 0.44244,-0.13826 0.76151,-0.30448 0.95508,-0.49804 0.2212,-0.22122 0.35873,-0.46957 0.41406,-0.7461 l 4.60352,-22.85547 c 0.19357,-1.02314 0.34642,-2.01848 0.45703,-2.98632 0.13826,-0.96784 0.20703,-1.93646 0.20703,-2.9043 0,-1.43793 -0.17958,-2.79243 -0.53906,-4.06445 -0.35949,-1.29968 -0.95362,-2.43255 -1.7832,-3.40039 -0.80192,-0.96784 -1.86604,-1.72821 -3.19336,-2.28125 -1.29967,-0.58071 -2.91784,-0.8711 -4.85352,-0.8711 z m 35.98833,0 c -2.5994,0 -4.9225,0.35916 -6.9688,1.07813 -2.0463,0.69131 -3.78667,1.67329 -5.22461,2.94531 -1.43793,1.24437 -2.53072,2.70968 -3.27734,4.39648 -0.74662,1.68681 -1.12109,3.51128 -1.12109,5.47461 0,1.79742 0.33242,3.29141 0.99609,4.48047 0.69131,1.18906 1.54912,2.18441 2.57227,2.98633 1.02314,0.80193 2.12929,1.4782 3.31836,2.03125 1.21672,0.55305 2.33622,1.09375 3.35942,1.61914 1.0231,0.5254 1.8656,1.09086 2.5292,1.69922 0.6914,0.60835 1.0372,1.39739 1.0372,2.36523 0,0.69132 -0.1376,1.34086 -0.4141,1.94922 -0.2489,0.60836 -0.6501,1.1471 -1.2031,1.61719 -0.553,0.4701 -1.258,0.84457 -2.1153,1.12109 -0.8296,0.24888 -1.8115,0.37305 -2.9453,0.37305 -1.63146,0 -2.99935,-0.16622 -4.10545,-0.49805 -1.07845,-0.35948 -1.99166,-0.732 -2.73828,-1.11914 -0.74662,-0.41478 -1.35412,-0.78926 -1.82422,-1.12109 -0.4701,-0.33183 -0.89997,-0.49805 -1.28711,-0.49805 -0.22122,0 -0.42752,0.12418 -0.62109,0.37305 -0.19357,0.22122 -0.37314,0.52692 -0.53906,0.91406 -0.16592,0.38714 -0.31877,0.81507 -0.45703,1.28516 l -0.33204,1.41015 c -0.0829,0.4701 -0.15169,0.89802 -0.20703,1.28516 -0.0277,0.38713 -0.041,0.70621 -0.041,0.95508 0,0.38714 0.0401,0.70425 0.12304,0.95312 0.11061,0.24888 0.27683,0.48386 0.49805,0.70508 0.33184,0.30418 0.83048,0.63661 1.49414,0.9961 0.66367,0.35948 1.46607,0.67855 2.40625,0.95507 0.96784,0.27653 2.04532,0.51152 3.23438,0.70508 1.21671,0.19358 2.48908,0.28907 3.8164,0.28907 2.76526,-10e-6 5.23926,-0.35916 7.42386,-1.07813 2.2122,-0.74662 4.0786,-1.77064 5.5996,-3.07031 1.5485,-1.29968 2.7254,-2.83376 3.5273,-4.60352 0.802,-1.79742 1.2012,-3.74606 1.2012,-5.84765 0,-1.79742 -0.3438,-3.29141 -1.0352,-4.48047 -0.6913,-1.18906 -1.5624,-2.19777 -2.6132,-3.02735 -1.0508,-0.82957 -2.1857,-1.52116 -3.4024,-2.07422 -1.2167,-0.55305 -2.3496,-1.07842 -3.4004,-1.57617 -1.0508,-0.5254 -1.9372,-1.07945 -2.6562,-1.66015 -0.6913,-0.58071 -1.0352,-1.29903 -1.0352,-2.15625 0,-0.66367 0.1242,-1.28649 0.3731,-1.86719 0.2765,-0.58071 0.6624,-1.0774 1.1601,-1.49219 0.4978,-0.44244 1.1206,-0.78823 1.8672,-1.03711 0.7743,-0.24887 1.6454,-0.37305 2.6133,-0.37305 1.2443,10e-6 2.3218,0.12418 3.2344,0.37305 0.9402,0.24888 1.7559,0.53927 2.4472,0.8711 0.6914,0.30418 1.2722,0.59456 1.7422,0.87109 0.4978,0.24887 0.9276,0.37305 1.2871,0.37305 0.3318,0 0.6223,-0.23499 0.8711,-0.70508 0.2766,-0.49775 0.5115,-1.07853 0.7051,-1.74219 0.1935,-0.66367 0.3311,-1.31321 0.4141,-1.94922 0.1106,-0.66366 0.166,-1.16231 0.166,-1.49414 0,-0.66366 -0.1529,-1.13363 -0.4571,-1.41016 -0.2765,-0.30418 -0.7464,-0.60793 -1.4101,-0.9121 -0.636,-0.30418 -1.3964,-0.58121 -2.2813,-0.83008 -0.8572,-0.24888 -1.8373,-0.44181 -2.9433,-0.58008 -1.0785,-0.16591 -2.1999,-0.24805 -3.3613,-0.24805 z m -424.00395,0.70508 c -1.02314,0 -1.88095,0.0401 -2.57227,0.12305 -0.66366,0.083 -1.21576,0.20713 -1.6582,0.37304 -0.41479,0.13826 -0.73386,0.3198 -0.95508,0.54102 -0.19361,0.19357 -0.31778,0.42856 -0.37305,0.70508 l -7.34179,36.91601 c -0.0553,0.27653 -0.0266,0.52488 0.084,0.7461 0.11061,0.19356 0.34559,0.35978 0.70508,0.49804 0.38713,0.13824 0.8972,0.23373 1.5332,0.28907 0.66367,0.0829 1.50811,0.125 2.53125,0.125 0.9955,0 1.83798,-0.0421 2.5293,-0.125 0.69131,-0.0553 1.24537,-0.15081 1.66015,-0.28907 0.44244,-0.13826 0.75956,-0.30448 0.95313,-0.49804 0.22119,-0.22122 0.36068,-0.46957 0.41602,-0.7461 l 7.34179,-36.91601 c 0.0553,-0.27652 0.0266,-0.51151 -0.084,-0.70508 -0.11061,-0.22122 -0.35896,-0.40276 -0.7461,-0.54102 -0.35948,-0.16591 -0.87149,-0.29008 -1.53515,-0.37304 -0.63602,-0.083 -1.46514,-0.12305 -2.48828,-0.12305 z m 132.77148,0 c -1.02315,0 -1.879,0.0401 -2.57031,0.12305 -0.66366,0.083 -1.21772,0.20713 -1.66016,0.37304 -0.41479,0.13826 -0.7319,0.3198 -0.95312,0.54102 -0.19354,0.19357 -0.31772,0.42856 -0.37305,0.70508 l -7.3418,36.91601 c -0.0553,0.27653 -0.0286,0.52488 0.082,0.7461 0.11062,0.19356 0.3456,0.35978 0.70508,0.49804 0.38714,0.13824 0.89915,0.23373 1.53516,0.28907 0.66366,0.0829 1.50615,0.125 2.5293,0.125 0.99549,0 1.83993,-0.0421 2.53125,-0.125 0.69131,-0.0553 1.24341,-0.15081 1.6582,-0.28907 0.44244,-0.13826 0.76151,-0.30448 0.95508,-0.49804 0.22119,-0.22122 0.35873,-0.46957 0.41406,-0.7461 l 7.3418,-36.91601 c 0.0553,-0.27652 0.0286,-0.51151 -0.082,-0.70508 -0.11062,-0.22122 -0.36092,-0.40276 -0.74805,-0.54102 -0.35949,-0.16591 -0.86954,-0.29008 -1.5332,-0.37304 -0.63601,-0.083 -1.46709,-0.12305 -2.49024,-0.12305 z m 171.90039,0 c -1.02314,0 -1.88095,0.0401 -2.57226,0.12305 -0.66367,0.083 -1.21577,0.20713 -1.65821,0.37304 -0.41478,0.13826 -0.73386,0.3198 -0.95507,0.54102 -0.19355,0.19357 -0.31772,0.42856 -0.37305,0.70508 l -7.3418,36.91601 c -0.0553,0.27653 -0.0266,0.52488 0.084,0.7461 0.1106,0.19356 0.34559,0.35978 0.70507,0.49804 0.38714,0.13824 0.8972,0.23373 1.53321,0.28907 0.66366,0.0829 1.5081,0.125 2.53125,0.125 0.99548,0 1.83797,-0.0421 2.52929,-0.125 0.69132,-0.0553 1.24537,-0.15081 1.66016,-0.28907 0.44244,-0.13826 0.75956,-0.30448 0.95312,-0.49804 0.22127,-0.22122 0.36075,-0.46957 0.41602,-0.7461 l 7.3418,-36.91601 c 0.0553,-0.27652 0.0266,-0.51151 -0.084,-0.70508 -0.1106,-0.22122 -0.35895,-0.40276 -0.74609,-0.54102 -0.35948,-0.16591 -0.8715,-0.29008 -1.53516,-0.37304 -0.63601,-0.083 -1.46513,-0.12305 -2.48828,-0.12305 z m -272.91406,6.71875 c 1.65915,0 2.91816,0.37252 3.77539,1.11914 0.88488,0.71897 1.32617,1.63218 1.32617,2.73828 0,0.77428 -0.20631,1.50791 -0.62109,2.19922 -0.4148,0.66366 -1.0777,1.24444 -1.99024,1.74219 -0.91253,0.49775 -2.11613,0.89894 -3.60937,1.20312 -1.49324,0.27653 -3.34639,0.41407 -5.5586,0.41407 l -3.48437,0 c 0.35949,-1.29968 0.82946,-2.51664 1.41016,-3.65039 0.60836,-1.16141 1.32863,-2.15675 2.1582,-2.98633 0.82958,-0.85723 1.78288,-1.53546 2.86133,-2.03321 1.1061,-0.49774 2.34979,-0.74609 3.73242,-0.74609 z m 206.74219,0 c 1.65915,0 2.91815,0.37252 3.77539,1.11914 0.88488,0.71897 1.32617,1.63218 1.32617,2.73828 0,0.77428 -0.20631,1.50791 -0.62109,2.19922 -0.4148,0.66366 -1.07966,1.24444 -1.99219,1.74219 -0.91254,0.49775 -2.11418,0.89894 -3.60742,1.20312 -1.49324,0.27653 -3.34639,0.41407 -5.5586,0.41407 l -3.48437,0 c 0.35948,-1.29968 0.82945,-2.51664 1.41015,-3.65039 0.60836,-1.16141 1.32668,-2.15675 2.15625,-2.98633 0.82958,-0.85723 1.78484,-1.53546 2.86328,-2.03321 1.10611,-0.49774 2.3498,-0.74609 3.73243,-0.74609 z m 96.64453,1.41016 c 1.54854,0 2.90304,0.38783 4.06445,1.16211 1.18906,0.74662 2.26849,1.8795 3.23633,3.40039 l -1.16211,5.59961 c -0.38714,1.90802 -1.00996,3.70577 -1.86719,5.39257 -0.82958,1.68681 -1.79624,3.16548 -2.90234,4.4375 -1.10611,1.24437 -2.29635,2.24167 -3.56836,2.98829 -1.27202,0.71896 -2.51571,1.07812 -3.73242,1.07812 -0.77428,0 -1.43914,-0.13949 -1.99219,-0.41601 -0.52539,-0.30419 -0.96669,-0.71875 -1.32617,-1.24415 -0.33184,-0.55304 -0.58018,-1.21596 -0.7461,-1.99023 -0.16591,-0.77427 -0.25,-1.63208 -0.25,-2.57227 0,-1.18906 0.0841,-2.44611 0.25,-3.77343 0.19357,-1.32732 0.46864,-2.6551 0.82813,-3.98242 0.38713,-1.32732 0.8571,-2.5997 1.41016,-3.81641 0.5807,-1.21671 1.24556,-2.28082 1.99218,-3.19336 0.77427,-0.94019 1.63208,-1.68719 2.57227,-2.24023 0.96784,-0.55306 2.03194,-0.83008 3.19336,-0.83008 z m -473.41992,19.66211 c -1.43794,0 -2.55745,0.13753 -3.35938,0.41406 -0.80192,0.24887 -1.42279,0.59467 -1.86523,1.03711 -0.44244,0.41478 -0.81692,0.94016 -1.1211,1.57617 -0.27652,0.63601 -0.5115,1.31228 -0.70507,2.03125 -0.16592,0.69131 -0.30346,1.36954 -0.41407,2.0332 -0.083,0.66367 -0.125,1.21772 -0.125,1.66016 0,0.69131 0.0821,1.29882 0.24805,1.82422 0.16592,0.49774 0.44294,0.91231 0.83008,1.24414 0.41478,0.33183 0.95352,0.58018 1.61718,0.74609 0.69132,0.16592 1.54913,0.25 2.57227,0.25 1.38263,0 2.48879,-0.13949 3.31836,-0.41601 0.85723,-0.24888 1.49342,-0.57936 1.9082,-0.99414 0.44244,-0.44245 0.8016,-0.98118 1.07813,-1.61719 0.30418,-0.66366 0.53916,-1.34189 0.70508,-2.0332 0.19356,-0.71897 0.33305,-1.41056 0.41601,-2.07422 0.083,-0.66366 0.12305,-1.2024 0.12305,-1.61719 0,-0.60836 -0.0688,-1.16241 -0.20703,-1.66016 -0.11061,-0.5254 -0.35896,-0.95333 -0.7461,-1.28515 -0.38713,-0.35949 -0.92587,-0.63651 -1.61718,-0.83008 -0.69132,-0.19357 -1.5778,-0.28906 -2.65625,-0.28906 z m 53.89453,0 c -1.43794,0 -2.55746,0.13753 -3.35938,0.41406 -0.80192,0.24887 -1.42475,0.59467 -1.86719,1.03711 -0.44244,0.41478 -0.81496,0.94016 -1.11914,1.57617 -0.27652,0.63601 -0.51151,1.31228 -0.70507,2.03125 -0.16592,0.69131 -0.30541,1.36954 -0.41602,2.0332 -0.083,0.66367 -0.12305,1.21772 -0.12305,1.66016 0,0.69131 0.0821,1.29882 0.24805,1.82422 0.16591,0.49774 0.44295,0.91231 0.83008,1.24414 0.41479,0.33183 0.95353,0.58018 1.61719,0.74609 0.69131,0.16592 1.54912,0.25 2.57226,0.25 1.38263,0 2.48878,-0.13949 3.31836,-0.41601 0.85723,-0.24888 1.49341,-0.57936 1.9082,-0.99414 0.44244,-0.44245 0.8016,-0.98118 1.07813,-1.61719 0.30417,-0.66366 0.53916,-1.34189 0.70508,-2.0332 0.19356,-0.71897 0.3311,-1.41056 0.41406,-2.07422 0.0829,-0.66366 0.125,-1.2024 0.125,-1.61719 0,-0.60836 -0.0688,-1.16241 -0.20703,-1.66016 -0.11061,-0.5254 -0.36091,-0.95333 -0.74805,-1.28515 -0.38714,-0.35949 -0.92587,-0.63651 -1.61719,-0.83008 -0.69131,-0.19357 -1.57585,-0.28906 -2.65429,-0.28906 z" />
    </g>
  </g>
</svg>
